<?xml version="1.0" standalone="no"?>
<!DOCTYPE svg PUBLIC "-//W3C//DTD SVG 20010904//EN"
 "http://www.w3.org/TR/2001/REC-SVG-20010904/DTD/svg10.dtd">
<svg version="1.0" xmlns="http://www.w3.org/2000/svg"
 width="3264.000000pt" height="3264.000000pt" viewBox="0 0 3264.000000 3264.000000"
 preserveAspectRatio="xMidYMid meet">
<metadata>
Created by potrace 1.11, written by Peter Selinger 2001-2013
</metadata>
<g transform="translate(0.000000,3264.000000) scale(0.100000,-0.100000)"
fill="#000000" stroke="none">
<path d="M15577 32633 c-3 -4 -41 -8 -85 -8 -44 0 -78 -3 -76 -7 3 -4 -6 -4
-19 1 -14 6 -27 8 -30 5 -11 -12 -52 -12 -66 -1 -12 9 -13 9 -7 0 5 -10 -5
-13 -41 -14 -83 -2 -98 -4 -112 -13 -10 -6 -12 -6 -7 2 9 15 1 15 -24 2 -13
-7 -21 -7 -26 1 -4 8 -9 7 -15 -2 -7 -11 -9 -11 -9 -1 0 9 -5 10 -18 3 -13 -7
-23 -6 -32 2 -10 9 -11 9 -6 0 5 -9 -1 -12 -23 -9 -17 2 -31 0 -31 -4 0 -3
-16 -6 -35 -5 -20 1 -35 -3 -35 -9 0 -6 -4 -5 -9 3 -7 10 -14 12 -23 5 -7 -5
-41 -9 -75 -9 -35 0 -63 -3 -63 -6 0 -3 -20 -5 -45 -5 -25 1 -45 -2 -45 -5 0
-3 -7 -6 -15 -6 -8 0 -15 5 -15 11 0 6 -4 5 -9 -2 -5 -9 -29 -14 -65 -14 -31
-1 -59 -5 -62 -9 -3 -5 -10 -9 -15 -9 -6 0 -7 5 -3 11 4 8 0 7 -15 -1 -12 -6
-29 -10 -39 -9 -48 4 -83 -1 -76 -13 6 -10 4 -10 -8 0 -13 10 -17 10 -21 0 -4
-11 -6 -10 -6 0 -1 8 -6 10 -13 5 -7 -4 -31 -9 -52 -10 -21 -1 -43 -6 -48 -11
-6 -6 -22 -7 -38 -2 -15 4 -32 4 -36 0 -5 -5 -29 -10 -54 -12 -25 -2 -48 -7
-52 -13 -5 -6 -8 -4 -8 5 0 11 -2 12 -8 3 -4 -7 -31 -14 -60 -15 -29 -2 -52
-6 -52 -9 0 -3 -7 -6 -15 -6 -8 0 -15 5 -15 11 0 7 -4 6 -8 -2 -5 -7 -24 -13
-43 -15 -19 -2 -40 -6 -47 -11 -7 -4 -12 -2 -12 6 0 9 -3 9 -8 2 -4 -6 -17
-10 -29 -9 -13 1 -23 -3 -23 -8 0 -5 -11 -7 -25 -5 -14 3 -25 1 -25 -6 0 -6
-5 -4 -10 4 -8 12 -10 12 -10 1 0 -8 -7 -11 -20 -8 -11 3 -27 -1 -35 -10 -8
-8 -15 -10 -15 -5 0 6 -8 9 -17 7 -10 -2 -18 -4 -18 -5 0 -1 -12 -3 -27 -4
-14 0 -30 -4 -34 -8 -12 -13 -26 -9 -18 5 4 6 -1 5 -12 -4 -10 -9 -31 -15 -46
-14 -16 1 -28 -1 -28 -6 0 -4 -13 -6 -30 -5 -16 1 -30 -1 -30 -5 0 -4 -11 -6
-25 -4 -14 1 -25 -1 -25 -6 0 -5 -7 -6 -15 -3 -8 3 -19 2 -26 -2 -7 -4 -30 -9
-51 -11 -22 -2 -47 -7 -56 -12 -9 -5 -25 -7 -34 -6 -10 2 -18 -1 -18 -7 0 -7
-5 -6 -14 1 -10 8 -16 9 -21 1 -3 -5 -17 -10 -30 -10 -13 0 -27 -5 -30 -10 -4
-6 -11 -8 -16 -4 -5 3 -17 0 -26 -8 -14 -11 -16 -11 -9 0 7 12 4 12 -14 2 -12
-6 -28 -9 -36 -6 -8 3 -14 1 -14 -5 0 -6 -7 -9 -15 -6 -8 4 -17 2 -20 -4 -4
-5 -17 -7 -31 -5 -16 3 -22 1 -18 -6 5 -7 1 -9 -9 -5 -9 3 -19 2 -22 -3 -9
-15 -27 -12 -20 3 4 6 -1 3 -9 -7 -12 -15 -16 -16 -16 -5 0 9 -3 10 -8 3 -4
-6 -18 -14 -32 -18 -20 -6 -22 -5 -10 4 13 10 13 11 0 6 -8 -3 -23 -9 -32 -12
-10 -4 -18 -11 -18 -16 0 -6 -7 -5 -15 2 -10 9 -15 9 -15 1 0 -6 -3 -10 -7
-10 -25 4 -63 -2 -59 -10 3 -4 -6 -7 -19 -5 -14 1 -27 -1 -30 -5 -2 -4 -18 -7
-34 -6 -17 1 -28 -2 -25 -7 3 -4 -9 -8 -26 -8 -20 0 -29 -4 -24 -11 4 -7 -1
-7 -16 1 -13 7 -20 8 -16 2 3 -6 2 -13 -4 -17 -5 -3 -10 0 -10 7 0 9 -3 10 -8
2 -4 -6 -15 -10 -24 -8 -10 1 -18 -1 -18 -5 0 -4 -6 -8 -12 -9 -7 -1 -24 -3
-38 -4 -14 -2 -31 -10 -38 -18 -8 -8 -11 -9 -7 -2 3 6 1 12 -4 12 -6 0 -11 -5
-11 -12 0 -6 -3 -8 -7 -5 -3 4 -13 1 -21 -6 -13 -10 -14 -9 -7 3 7 12 6 13 -6
3 -8 -6 -18 -12 -24 -12 -32 -4 -91 -25 -97 -35 -6 -8 -8 -7 -8 2 0 9 -5 10
-19 3 -10 -6 -21 -7 -25 -4 -3 3 -6 1 -6 -6 0 -8 -6 -11 -16 -7 -9 3 -25 0
-36 -8 -11 -8 -27 -12 -34 -9 -8 3 -14 0 -14 -7 0 -7 -7 -10 -15 -6 -8 3 -15
1 -15 -4 0 -5 -9 -7 -20 -5 -11 2 -22 -1 -25 -6 -4 -5 -11 -7 -16 -4 -5 4 -9
1 -9 -6 0 -7 -3 -9 -7 -6 -3 4 -12 2 -20 -4 -10 -9 -13 -8 -13 2 0 12 -2 12
-9 0 -5 -7 -22 -14 -39 -14 -17 -1 -28 -6 -24 -11 3 -5 -2 -7 -11 -3 -9 3 -18
0 -21 -9 -3 -9 -10 -13 -14 -10 -5 3 -26 0 -48 -6 -21 -6 -42 -11 -46 -10 -5
1 -8 -2 -8 -6 0 -5 -7 -9 -15 -10 -8 -1 -22 -3 -30 -4 -8 -1 -15 -6 -15 -11 0
-5 -8 -3 -17 4 -9 8 -14 9 -10 2 7 -11 -21 -26 -39 -21 -5 1 -19 -3 -31 -10
-12 -7 -33 -13 -47 -14 -13 -1 -22 -6 -20 -10 3 -4 -6 -8 -20 -8 -14 0 -27 -4
-31 -9 -3 -6 -14 -8 -25 -6 -13 3 -18 0 -14 -7 5 -7 -2 -9 -20 -6 -15 3 -24 3
-21 0 3 -3 -5 -11 -18 -17 -16 -9 -26 -9 -36 -1 -11 8 -13 8 -7 -1 5 -9 0 -13
-13 -13 -12 0 -21 -4 -21 -9 0 -6 -9 -8 -19 -6 -11 2 -25 -3 -31 -10 -6 -8
-19 -11 -27 -8 -10 4 -14 2 -10 -4 4 -6 1 -11 -6 -10 -35 1 -48 -4 -41 -15 5
-9 2 -9 -9 1 -12 9 -17 10 -17 2 0 -7 -4 -10 -9 -6 -5 3 -12 1 -16 -5 -4 -6
-11 -8 -16 -5 -5 4 -9 1 -9 -6 0 -7 -3 -9 -7 -6 -3 4 -12 2 -19 -4 -8 -6 -21
-9 -29 -5 -9 3 -13 2 -10 -4 6 -9 -8 -14 -27 -11 -5 0 -8 -3 -8 -7 0 -5 -6 -9
-12 -10 -39 -3 -54 -9 -66 -22 -12 -13 -13 -13 -6 0 7 13 6 13 -10 0 -10 -8
-24 -15 -32 -16 -7 -1 -27 -9 -44 -17 -21 -11 -30 -12 -30 -4 0 7 -4 6 -10 -3
-5 -8 -13 -15 -17 -16 -4 -1 -24 -7 -43 -15 -19 -7 -38 -12 -42 -11 -5 1 -8
-3 -8 -9 0 -6 -7 -9 -15 -5 -8 3 -15 1 -15 -4 0 -6 -9 -10 -21 -10 -13 0 -18
-4 -13 -12 4 -7 3 -8 -5 -4 -6 4 -18 2 -26 -4 -8 -7 -15 -10 -15 -6 0 3 -15
-3 -34 -14 -25 -13 -36 -16 -40 -7 -2 7 -5 4 -5 -6 -1 -10 -6 -15 -11 -12 -6
4 -17 1 -25 -5 -8 -6 -19 -9 -25 -5 -5 3 -10 2 -10 -3 0 -6 -11 -13 -25 -16
-14 -4 -23 -11 -20 -16 3 -5 -1 -7 -9 -4 -8 3 -26 -2 -40 -11 -14 -10 -26 -14
-26 -10 0 5 -8 1 -18 -8 -10 -10 -22 -14 -25 -10 -4 3 -7 1 -7 -6 0 -7 -4 -10
-9 -6 -5 3 -12 1 -16 -5 -3 -5 -17 -10 -31 -10 -14 0 -27 -7 -30 -15 -4 -8
-10 -13 -14 -10 -5 3 -25 -4 -46 -15 -20 -12 -39 -19 -42 -16 -3 3 -11 -2 -19
-12 -9 -10 -11 -11 -7 -2 7 13 6 13 -12 0 -10 -8 -22 -19 -26 -25 -4 -5 -8 -6
-8 -2 0 4 -10 2 -22 -5 -13 -7 -26 -11 -30 -10 -5 1 -8 -3 -8 -10 0 -6 -3 -8
-7 -5 -3 4 -17 0 -30 -8 -13 -9 -23 -12 -23 -9 0 4 -9 -1 -20 -11 -10 -9 -26
-15 -35 -11 -9 3 -13 2 -10 -3 3 -5 -11 -15 -30 -22 -19 -7 -35 -16 -35 -21 0
-4 -7 -5 -15 -2 -8 4 -15 1 -15 -6 0 -6 -4 -8 -10 -5 -5 3 -10 2 -10 -3 0 -5
-18 -15 -40 -22 -22 -7 -40 -17 -40 -22 0 -5 -4 -6 -10 -3 -5 3 -10 1 -10 -5
0 -6 -4 -8 -10 -5 -5 3 -10 1 -10 -5 0 -7 -7 -10 -15 -6 -8 3 -15 1 -15 -4 0
-5 -11 -12 -25 -16 -14 -3 -25 -10 -25 -16 0 -5 -4 -6 -10 -3 -5 3 -10 2 -10
-4 0 -6 -6 -8 -14 -5 -7 3 -16 -2 -20 -11 -3 -9 -10 -13 -16 -10 -6 3 -22 -2
-38 -13 -15 -11 -49 -30 -77 -43 -27 -12 -52 -26 -55 -30 -3 -3 -13 -5 -22 -4
-10 2 -16 0 -15 -3 1 -4 -2 -8 -7 -9 -5 -1 -12 -6 -16 -13 -4 -6 -13 -13 -21
-14 -25 -5 -89 -39 -89 -48 0 -5 -4 -6 -10 -3 -5 3 -10 1 -10 -4 0 -6 -3 -10
-7 -10 -20 3 -34 -2 -28 -11 3 -6 -1 -7 -9 -4 -9 3 -16 1 -16 -6 0 -6 -4 -9
-9 -5 -6 3 -20 -5 -32 -17 -12 -13 -19 -16 -15 -8 7 13 6 13 -6 0 -7 -8 -20
-16 -28 -18 -8 -2 -16 -8 -18 -13 -2 -5 -12 -9 -23 -9 -10 0 -19 -4 -19 -10 0
-5 -7 -10 -16 -10 -8 0 -13 -4 -10 -9 3 -4 -6 -7 -20 -5 -14 1 -23 0 -20 -3 8
-9 -18 -31 -31 -26 -7 3 -13 0 -13 -5 0 -6 -10 -14 -22 -18 -13 -3 -31 -13
-40 -22 -10 -8 -18 -11 -18 -6 0 5 -7 0 -15 -10 -8 -11 -15 -16 -15 -12 0 4
-13 -2 -30 -14 -16 -12 -35 -18 -41 -14 -8 4 -9 3 -5 -4 4 -7 1 -12 -8 -12 -9
0 -16 -5 -16 -11 0 -5 -5 -7 -10 -4 -6 3 -13 -1 -16 -9 -3 -9 -10 -14 -14 -11
-4 3 -20 -8 -36 -23 -15 -15 -24 -21 -20 -14 4 6 4 12 1 12 -4 0 -13 -6 -20
-12 -33 -30 -45 -38 -53 -38 -5 0 -21 -9 -34 -20 -14 -10 -28 -16 -32 -13 -3
3 -6 1 -6 -6 0 -8 -7 -11 -15 -7 -9 3 -15 0 -15 -10 0 -8 -4 -12 -10 -9 -5 3
-10 2 -10 -3 0 -5 -13 -15 -30 -22 -16 -7 -30 -17 -30 -23 0 -6 -3 -8 -6 -4
-4 3 -15 -4 -26 -16 -11 -12 -17 -16 -13 -10 4 9 1 11 -9 7 -9 -3 -16 -10 -16
-15 0 -5 -7 -9 -15 -9 -8 0 -15 -4 -15 -10 0 -5 -6 -10 -13 -10 -7 0 -22 -8
-33 -17 -10 -10 -36 -26 -57 -36 -21 -9 -35 -22 -32 -27 3 -6 -1 -7 -9 -4 -10
4 -16 1 -16 -7 0 -7 -3 -10 -6 -6 -4 3 -12 1 -20 -6 -33 -29 -44 -37 -54 -37
-5 0 -19 -9 -30 -20 -12 -12 -25 -18 -30 -15 -6 4 -10 -1 -10 -10 0 -9 -4 -13
-10 -10 -5 3 -10 2 -10 -4 0 -6 -8 -8 -17 -4 -10 3 -15 3 -11 -2 9 -9 -28 -39
-59 -49 -13 -4 -23 -12 -23 -17 0 -5 -7 -9 -15 -9 -8 0 -15 -5 -15 -11 0 -6
-7 -8 -16 -5 -8 3 -13 2 -11 -2 3 -4 -2 -14 -11 -22 -9 -8 -17 -13 -18 -10 -1
3 -16 -6 -34 -20 -18 -14 -35 -23 -37 -20 -2 3 -9 -3 -14 -12 -6 -10 -17 -18
-24 -18 -8 0 -15 -7 -15 -16 0 -8 -4 -13 -10 -9 -5 3 -18 -3 -30 -15 -11 -11
-25 -20 -30 -20 -6 0 -10 -5 -10 -11 0 -5 -5 -7 -10 -4 -6 3 -13 -1 -16 -10
-4 -9 -13 -14 -21 -10 -11 4 -13 1 -9 -10 3 -9 2 -14 -3 -11 -5 3 -19 -4 -33
-17 -13 -12 -28 -23 -33 -25 -6 -1 -21 -13 -35 -25 -14 -12 -27 -22 -30 -22
-17 -1 -59 -39 -53 -48 3 -6 1 -7 -5 -3 -7 4 -12 3 -12 -3 0 -6 -7 -7 -17 -4
-10 4 -14 2 -10 -4 6 -10 -19 -28 -35 -25 -4 1 -10 -7 -13 -18 -4 -11 -10 -18
-14 -15 -5 2 -16 -4 -26 -15 -10 -11 -22 -20 -26 -20 -16 0 -48 -33 -42 -43 4
-6 1 -7 -7 -2 -7 4 -15 4 -19 -1 -8 -13 -78 -64 -86 -64 -11 0 -35 -28 -35
-40 0 -6 -4 -9 -9 -5 -6 3 -19 -5 -30 -17 -12 -12 -21 -19 -21 -15 0 4 -14 -6
-30 -23 -17 -17 -30 -29 -30 -26 0 4 -36 -24 -71 -56 -10 -10 -19 -15 -19 -11
0 4 -9 -3 -20 -15 -12 -12 -32 -29 -45 -38 -14 -9 -22 -21 -18 -27 3 -5 2 -7
-4 -4 -5 4 -19 -3 -31 -13 -12 -11 -26 -20 -32 -20 -5 0 -10 -3 -10 -8 0 -4
-29 -30 -65 -57 -36 -27 -65 -52 -65 -56 0 -4 -9 -11 -20 -14 -11 -3 -20 -13
-20 -21 0 -8 -4 -12 -10 -9 -5 3 -10 2 -10 -3 0 -5 -9 -12 -21 -15 -12 -3 -18
-10 -14 -16 3 -6 -1 -11 -9 -11 -9 0 -16 -5 -16 -10 0 -6 -11 -15 -25 -22 -13
-6 -22 -15 -19 -19 3 -5 -1 -9 -8 -9 -7 0 -24 -12 -37 -25 -12 -14 -27 -22
-32 -19 -5 3 -8 2 -7 -3 3 -12 -54 -73 -69 -73 -7 0 -13 -5 -13 -11 0 -5 -4
-7 -10 -4 -5 3 -10 -1 -10 -9 0 -9 -5 -16 -11 -16 -14 0 -39 -26 -39 -40 0 -6
-4 -9 -9 -6 -5 3 -12 -1 -15 -10 -3 -8 -10 -13 -15 -9 -5 3 -13 -4 -16 -16 -4
-11 -9 -18 -12 -15 -3 3 -19 -9 -34 -25 -16 -17 -29 -27 -29 -23 -1 5 -8 -3
-16 -18 -8 -16 -21 -28 -29 -28 -8 0 -15 -8 -15 -17 0 -9 -3 -13 -7 -10 -3 4
-17 -6 -31 -21 -14 -15 -30 -26 -34 -24 -4 1 -8 -5 -8 -13 0 -8 -7 -15 -16
-15 -8 0 -12 -4 -9 -10 3 -5 0 -10 -7 -10 -7 0 -19 -9 -26 -20 -7 -12 -17 -18
-23 -15 -5 4 -8 3 -7 -2 1 -4 -21 -31 -50 -60 -28 -29 -52 -50 -52 -48 0 2
-10 -6 -23 -18 -13 -12 -23 -24 -22 -27 2 -6 -31 -39 -42 -42 -15 -6 -71 -67
-65 -72 3 -3 0 -6 -7 -6 -17 0 -82 -65 -74 -74 6 -5 -12 -10 -29 -7 -5 0 -8
-4 -8 -10 0 -6 -16 -25 -35 -43 -19 -19 -35 -39 -35 -45 0 -7 -3 -10 -7 -8
-10 5 -63 -50 -55 -57 3 -3 -3 -6 -12 -6 -12 0 -16 -5 -13 -14 4 -10 1 -13 -7
-10 -8 3 -23 -9 -34 -28 -12 -18 -22 -29 -22 -24 0 6 -11 -4 -23 -22 -13 -17
-27 -29 -30 -25 -4 3 -7 -1 -7 -11 0 -10 -5 -14 -12 -10 -7 5 -9 0 -6 -14 4
-14 2 -19 -7 -16 -7 3 -15 -2 -19 -11 -3 -9 -10 -13 -16 -10 -6 4 -7 -1 -3
-11 4 -11 3 -15 -5 -10 -6 3 -13 -3 -17 -14 -4 -11 -10 -18 -15 -15 -8 5 -25
-24 -21 -38 1 -5 -2 -6 -7 -3 -9 6 -43 -30 -35 -37 2 -3 -5 -8 -16 -12 -12 -3
-21 -13 -21 -21 0 -9 -5 -12 -12 -8 -8 5 -9 2 -4 -12 4 -10 4 -15 0 -11 -11
10 -35 -13 -27 -27 3 -6 3 -8 -2 -4 -10 10 -38 -19 -30 -32 4 -6 3 -10 -2 -9
-19 3 -34 -2 -29 -9 3 -5 -4 -15 -15 -22 -10 -8 -19 -20 -19 -27 0 -7 -4 -12
-9 -11 -5 2 -10 0 -10 -4 -1 -4 -24 -30 -51 -58 -30 -30 -48 -56 -44 -63 4 -7
4 -9 0 -5 -9 8 -66 -47 -66 -63 0 -6 -5 -7 -12 -3 -8 5 -9 2 -4 -12 4 -10 4
-15 0 -12 -4 4 -20 -9 -36 -30 -17 -20 -35 -36 -40 -34 -5 1 -8 -3 -6 -10 3
-7 -6 -21 -18 -31 -13 -9 -26 -26 -29 -37 -4 -11 -10 -18 -15 -15 -4 3 -14 -8
-21 -24 -7 -16 -17 -27 -21 -25 -4 3 -8 1 -8 -3 0 -9 -37 -56 -82 -104 -15
-16 -26 -29 -23 -29 4 0 -28 -39 -60 -74 -11 -12 -22 -26 -24 -31 -1 -6 -7 -9
-13 -7 -5 1 -7 -2 -4 -7 3 -4 -10 -25 -28 -45 -19 -20 -32 -36 -28 -36 4 -1
-4 -10 -17 -20 -13 -11 -19 -20 -15 -20 5 0 1 -5 -9 -11 -9 -6 -15 -14 -12
-19 3 -5 -4 -11 -15 -15 -11 -4 -18 -11 -15 -16 4 -5 1 -9 -4 -9 -6 0 -11 -7
-11 -15 0 -8 -9 -19 -21 -25 -11 -7 -18 -14 -16 -17 3 -2 -3 -13 -14 -24 -11
-11 -17 -25 -13 -31 5 -7 3 -8 -5 -4 -8 5 -14 0 -18 -13 -3 -11 -8 -19 -12
-16 -4 2 -15 -12 -26 -31 -10 -19 -22 -34 -27 -34 -4 0 -8 -5 -8 -11 0 -6 -10
-20 -22 -31 -13 -11 -16 -16 -8 -12 9 4 7 -1 -5 -14 -37 -39 -50 -57 -47 -64
1 -5 -2 -8 -6 -8 -5 0 -17 -15 -27 -34 -11 -19 -22 -33 -26 -30 -4 2 -11 -6
-15 -18 -9 -30 -40 -69 -48 -61 -3 3 -6 -3 -6 -15 0 -12 -4 -22 -9 -22 -5 0
-13 -9 -16 -20 -4 -11 -11 -18 -16 -15 -5 4 -9 -1 -9 -9 0 -8 -7 -22 -16 -30
-8 -9 -12 -21 -8 -27 4 -7 3 -10 -2 -7 -5 3 -15 0 -22 -8 -7 -8 -9 -14 -5 -14
4 0 3 -4 -4 -8 -6 -4 -13 -14 -15 -22 -2 -7 -13 -24 -25 -35 -13 -12 -20 -25
-16 -28 3 -4 1 -7 -5 -7 -7 0 -12 -7 -12 -16 0 -8 -4 -12 -10 -9 -9 6 -11 2
-14 -32 -1 -6 -11 -20 -24 -31 -12 -11 -22 -24 -22 -31 0 -6 -4 -11 -8 -11 -5
0 -19 -20 -32 -45 -13 -25 -27 -45 -32 -45 -4 0 -8 -5 -8 -10 0 -6 -9 -21 -20
-33 -11 -12 -19 -26 -16 -32 5 -13 -20 -36 -30 -27 -4 4 -4 1 0 -6 4 -7 1 -15
-8 -18 -9 -3 -13 -11 -9 -17 3 -5 -1 -15 -10 -22 -9 -6 -17 -17 -19 -25 -2 -7
-13 -24 -26 -38 -12 -14 -20 -32 -17 -39 2 -8 1 -12 -4 -9 -4 3 -13 -6 -20
-20 -6 -14 -16 -22 -21 -19 -5 3 -7 0 -4 -8 3 -8 -1 -21 -8 -28 -7 -8 -20 -23
-28 -33 -13 -18 -13 -19 0 -12 8 4 5 -1 -7 -12 -12 -11 -19 -22 -16 -26 4 -3
1 -6 -5 -6 -7 0 -12 -7 -12 -15 0 -8 -4 -15 -10 -15 -5 0 -9 -6 -7 -12 1 -7
-3 -12 -9 -11 -7 1 -10 -6 -7 -18 3 -11 2 -19 -3 -18 -21 4 -28 -2 -14 -11 13
-8 12 -10 -3 -10 -10 0 -15 -4 -12 -10 3 -5 3 -10 -2 -10 -4 0 -17 -18 -27
-40 -10 -22 -23 -37 -29 -33 -6 4 -7 1 -3 -6 5 -7 1 -20 -7 -29 -9 -9 -17 -24
-19 -32 -2 -8 -11 -23 -20 -34 -10 -10 -15 -23 -12 -28 3 -4 1 -8 -4 -8 -5 0
-20 -21 -33 -47 -13 -27 -27 -49 -31 -51 -4 -2 -12 -19 -18 -38 -6 -19 -15
-32 -20 -29 -10 6 -22 -24 -14 -36 3 -5 0 -9 -6 -9 -6 0 -16 -13 -21 -30 -6
-16 -15 -30 -21 -30 -5 0 -7 -4 -3 -10 3 -5 -3 -18 -15 -30 -12 -12 -15 -20
-8 -20 7 0 5 -5 -4 -11 -10 -5 -18 -19 -18 -29 0 -10 -8 -24 -17 -29 -10 -6
-14 -11 -10 -11 5 0 -1 -13 -13 -30 -12 -16 -18 -30 -13 -30 4 0 3 -4 -3 -8
-15 -10 -47 -72 -37 -72 5 0 1 -5 -7 -10 -8 -5 -15 -14 -15 -20 0 -6 -7 -15
-15 -20 -13 -8 -13 -10 -1 -10 11 0 11 -3 -3 -13 -9 -7 -18 -19 -20 -27 -6
-29 -18 -50 -27 -44 -5 3 -6 -1 -4 -9 3 -7 -4 -24 -15 -37 -11 -13 -19 -29
-16 -36 3 -7 -2 -15 -10 -18 -9 -3 -13 -10 -10 -15 3 -5 -1 -14 -9 -21 -8 -7
-15 -21 -15 -32 0 -10 -4 -16 -10 -13 -6 3 -10 -4 -10 -18 0 -13 -9 -34 -20
-47 -23 -27 -25 -34 -7 -25 6 4 4 0 -6 -8 -10 -9 -18 -18 -17 -21 2 -11 -63
-141 -72 -144 -4 -2 -6 -8 -2 -13 3 -5 1 -9 -5 -9 -5 0 -8 -9 -6 -20 2 -11 0
-20 -5 -20 -5 0 -15 -14 -24 -30 -9 -19 -10 -28 -3 -24 7 4 1 -5 -13 -21 -14
-16 -18 -24 -10 -20 12 7 13 6 3 -7 -7 -8 -9 -19 -5 -23 4 -5 2 -5 -4 -2 -6 3
-17 -9 -26 -28 -8 -19 -11 -32 -7 -29 5 3 9 0 9 -5 0 -6 -7 -11 -15 -11 -8 0
-14 -3 -13 -7 1 -5 -6 -25 -15 -47 -9 -21 -17 -42 -17 -47 0 -5 -5 -9 -11 -9
-5 0 -8 -4 -4 -9 3 -5 1 -12 -5 -16 -6 -4 -8 -11 -5 -16 4 -5 2 -9 -3 -9 -5 0
-12 -14 -16 -31 -3 -17 -10 -28 -15 -24 -6 3 -8 -3 -6 -15 2 -11 -3 -24 -13
-30 -11 -6 -12 -10 -4 -10 8 0 6 -7 -7 -22 -11 -11 -18 -24 -16 -28 5 -9 -20
-62 -26 -56 -2 3 -5 -7 -6 -22 0 -14 -9 -32 -19 -39 -13 -9 -14 -13 -4 -13 9
0 8 -5 -6 -16 -10 -8 -13 -13 -7 -9 9 4 11 1 7 -9 -3 -9 -10 -16 -16 -16 -5 0
-7 -4 -3 -9 3 -5 1 -12 -5 -16 -5 -3 -10 -14 -10 -24 0 -10 -6 -24 -14 -31 -8
-6 -13 -17 -10 -25 3 -7 0 -16 -5 -20 -6 -3 -9 -11 -6 -16 4 -5 1 -9 -5 -9 -6
0 -9 -4 -5 -9 3 -5 1 -12 -5 -16 -6 -4 -8 -11 -5 -16 4 -5 1 -9 -5 -9 -7 0 -9
-7 -6 -16 3 -8 2 -12 -4 -9 -6 3 -10 -5 -10 -19 0 -14 -4 -26 -8 -26 -5 0 -9
-6 -9 -12 0 -7 -8 -30 -17 -50 -9 -21 -13 -38 -9 -38 5 0 4 -4 -2 -8 -5 -4
-16 -18 -23 -31 -11 -19 -11 -22 0 -15 9 6 9 3 -2 -10 -14 -18 -21 -36 -23
-68 -1 -9 -6 -16 -12 -15 -5 1 -9 -6 -7 -15 2 -10 -2 -18 -8 -18 -5 0 -9 -3
-9 -7 4 -20 -15 -73 -25 -73 -6 0 -4 -5 4 -10 12 -8 12 -10 -5 -10 -15 0 -17
-2 -6 -9 8 -5 9 -10 2 -12 -6 -2 -12 -15 -13 -29 -2 -14 -9 -31 -16 -38 -7 -8
-10 -17 -7 -22 3 -5 1 -11 -5 -15 -6 -4 -8 -11 -5 -16 4 -5 1 -9 -4 -9 -6 0
-11 -11 -11 -24 0 -14 -5 -28 -10 -31 -6 -4 -8 -10 -5 -15 3 -5 0 -12 -6 -15
-5 -4 -8 -13 -5 -21 3 -8 -1 -17 -8 -20 -8 -3 -12 -14 -9 -25 3 -11 0 -19 -6
-19 -7 0 -11 -8 -10 -17 2 -10 -2 -28 -9 -39 -6 -12 -8 -24 -5 -28 3 -3 0 -6
-7 -6 -7 0 -11 -3 -8 -6 4 -3 0 -21 -8 -40 -8 -19 -12 -40 -8 -46 4 -7 3 -8
-4 -4 -8 5 -12 -2 -12 -18 0 -14 -4 -26 -10 -26 -5 0 -10 -12 -10 -26 0 -14
-5 -35 -12 -47 -6 -12 -13 -32 -14 -45 -2 -12 -9 -36 -18 -52 -9 -19 -10 -28
-3 -23 7 4 7 0 -1 -10 -8 -9 -10 -22 -6 -28 4 -8 3 -9 -4 -5 -11 7 -17 -18
-13 -53 2 -7 -2 -10 -7 -7 -9 5 -27 -62 -22 -80 1 -4 -3 -10 -8 -13 -6 -3 -12
-19 -13 -36 -2 -16 -8 -33 -12 -36 -5 -4 -10 -22 -11 -40 -1 -19 -8 -44 -15
-57 -6 -12 -9 -27 -6 -32 3 -6 2 -10 -3 -10 -8 0 -19 -33 -24 -77 -1 -7 -4
-13 -7 -13 -3 0 -7 -10 -8 -23 -5 -45 -11 -62 -24 -59 -9 2 -10 0 -1 -11 7 -8
9 -17 5 -21 -4 -4 -9 -19 -11 -34 -2 -14 -8 -32 -14 -39 -6 -7 -8 -22 -5 -33
3 -11 1 -20 -5 -20 -5 0 -7 -4 -3 -9 3 -5 1 -12 -4 -16 -6 -3 -8 -12 -4 -20 3
-8 1 -15 -5 -15 -6 0 -9 -8 -7 -17 1 -10 0 -22 -4 -28 -3 -5 -6 -14 -8 -20 -1
-5 -5 -21 -8 -35 -4 -14 -8 -35 -10 -48 -2 -13 -9 -30 -17 -39 -11 -14 -11
-16 2 -8 13 8 13 6 2 -8 -8 -9 -11 -21 -7 -27 3 -5 2 -10 -2 -10 -5 0 -10 -11
-11 -25 -3 -48 -5 -55 -16 -55 -6 0 -4 -5 4 -10 11 -7 11 -10 2 -10 -7 0 -11
-4 -7 -9 3 -5 1 -12 -4 -15 -5 -4 -8 -17 -6 -31 1 -14 -1 -25 -4 -25 -6 0 -10
-17 -13 -57 -1 -7 -4 -13 -8 -13 -3 0 -6 -8 -7 -17 -2 -27 -8 -46 -17 -62 -7
-10 -6 -12 4 -6 9 6 11 4 5 -6 -5 -7 -10 -27 -12 -44 -2 -16 -8 -32 -14 -33
-6 -3 -6 -9 2 -18 9 -11 9 -14 -1 -14 -7 0 -10 -7 -6 -15 3 -8 0 -15 -7 -15
-8 0 -6 -4 3 -10 12 -7 12 -10 1 -10 -7 0 -11 -6 -7 -15 3 -8 2 -15 -2 -15 -5
0 -9 -11 -10 -25 -5 -57 -7 -65 -17 -65 -5 0 -3 -5 5 -10 8 -5 10 -10 4 -10
-7 0 -15 -7 -18 -16 -4 -9 -2 -13 5 -8 8 4 7 0 0 -15 -9 -16 -9 -21 1 -21 9 0
9 -3 -2 -10 -8 -5 -15 -21 -17 -37 -6 -69 -10 -89 -17 -101 -4 -7 -4 -16 -1
-22 3 -5 2 -10 -3 -10 -5 0 -8 -11 -7 -25 2 -14 -1 -25 -6 -25 -4 0 -6 -6 -3
-14 3 -8 1 -23 -5 -34 -7 -13 -7 -22 2 -31 9 -10 9 -12 -2 -9 -10 2 -14 -11
-16 -47 -1 -27 -5 -57 -8 -65 -4 -8 -9 -33 -12 -55 -7 -50 -12 -89 -20 -139
-3 -22 -10 -45 -16 -52 -7 -8 -7 -14 1 -19 6 -3 7 -12 3 -18 -4 -7 -8 -27 -8
-45 -1 -19 -8 -38 -16 -43 -8 -5 -9 -9 -3 -9 9 0 12 -38 4 -47 -2 -2 -3 -11
-4 -20 -1 -10 -5 -24 -10 -32 -7 -10 -6 -12 4 -6 10 6 11 4 4 -6 -8 -14 -11
-27 -17 -99 -1 -19 -5 -40 -8 -45 -3 -6 -5 -22 -4 -37 0 -16 -2 -28 -6 -28 -3
0 -5 -11 -3 -25 1 -14 -1 -39 -6 -55 -6 -21 -5 -30 3 -30 8 0 8 -3 -1 -8 -7
-5 -10 -16 -6 -25 3 -9 2 -17 -3 -17 -4 0 -8 -23 -7 -50 0 -28 -2 -53 -6 -55
-4 -2 -6 -23 -5 -46 1 -26 -3 -43 -12 -46 -11 -4 -10 -8 4 -19 12 -9 14 -13 5
-14 -7 0 -10 -5 -6 -11 3 -6 0 -15 -7 -20 -11 -7 -11 -9 -1 -9 8 0 10 -5 5
-12 -4 -7 -8 -22 -8 -33 0 -11 -4 -26 -9 -34 -6 -10 -6 -12 2 -7 16 10 15 -7
0 -23 -10 -11 -10 -13 0 -7 6 4 12 2 12 -3 0 -6 -3 -11 -7 -11 -7 0 -12 -59
-16 -192 -1 -27 -5 -48 -8 -48 -3 0 -5 -10 -4 -22 1 -13 -1 -27 -4 -33 -6 -9
-7 -31 -1 -37 8 -11 6 -38 -3 -38 -7 0 -5 -5 3 -10 12 -8 12 -10 1 -10 -11 0
-11 -3 0 -17 8 -9 9 -14 3 -10 -8 4 -11 -8 -10 -41 1 -26 -1 -63 -4 -83 -4
-21 -3 -45 3 -54 7 -14 6 -16 -3 -10 -10 6 -12 4 -7 -8 3 -9 2 -19 -4 -23 -6
-4 -6 -11 2 -20 9 -11 8 -14 -2 -14 -11 0 -11 -2 1 -10 12 -8 12 -10 1 -10
-10 0 -11 -3 -2 -14 7 -8 8 -16 4 -19 -4 -3 -8 -57 -8 -121 0 -64 -4 -116 -8
-116 -4 0 -3 -9 3 -20 6 -11 7 -20 3 -20 -4 0 -9 -11 -9 -25 -1 -15 2 -22 9
-18 6 4 7 1 1 -8 -12 -20 -13 -690 -1 -682 6 4 7 1 1 -8 -14 -23 -15 -52 -2
-61 7 -4 8 -8 3 -8 -12 0 -13 -150 -1 -168 4 -7 2 -12 -3 -12 -6 0 -11 -5 -11
-11 0 -5 4 -8 8 -5 12 7 9 -38 -3 -46 -7 -5 -7 -8 0 -8 6 0 10 -33 9 -81 0
-44 4 -83 9 -86 5 -3 3 -9 -4 -13 -10 -7 -10 -12 -1 -23 7 -7 9 -17 5 -21 -11
-10 -12 -36 -2 -36 11 0 7 -23 -6 -32 -6 -5 -6 -8 1 -8 10 0 15 -44 17 -157 1
-24 6 -43 12 -43 6 0 7 -3 0 -8 -15 -11 -17 -32 -2 -32 8 0 7 -4 -3 -10 -12
-8 -12 -10 -1 -10 10 0 11 -3 2 -13 -6 -8 -8 -17 -4 -21 12 -12 12 -36 0 -36
-7 0 -6 -4 3 -10 8 -5 11 -12 8 -16 -4 -4 -3 -15 3 -25 7 -14 6 -19 -3 -19 -9
0 -9 -3 0 -12 8 -8 8 -17 1 -30 -7 -14 -7 -18 3 -16 7 2 11 -4 9 -12 -2 -8 -2
-26 -2 -40 1 -14 2 -42 3 -62 1 -20 4 -35 7 -34 3 2 6 -31 6 -74 -1 -43 2 -77
5 -75 3 2 6 -8 6 -21 1 -15 -2 -21 -10 -17 -6 4 -5 -1 3 -11 8 -9 15 -36 16
-59 0 -23 5 -49 10 -56 6 -10 4 -12 -5 -6 -9 6 -11 4 -5 -5 5 -8 9 -33 10 -57
1 -24 5 -46 8 -49 3 -3 3 -13 0 -22 -5 -11 -3 -13 7 -7 10 6 11 4 4 -6 -11
-18 -14 -40 -5 -35 3 2 8 -19 9 -47 6 -97 7 -107 13 -107 3 0 5 -10 4 -22 -1
-13 2 -31 7 -40 6 -12 5 -18 -2 -18 -7 0 -8 -5 -3 -12 4 -7 8 -22 8 -33 0 -11
4 -26 8 -32 5 -8 3 -13 -5 -13 -9 0 -10 -2 -2 -8 10 -6 22 -71 26 -132 0 -8 6
-21 12 -29 8 -11 8 -13 -1 -7 -7 4 -13 2 -13 -3 0 -6 5 -11 11 -11 5 0 8 -4 5
-9 -4 -5 0 -12 6 -14 9 -4 9 -6 1 -6 -8 -1 -9 -10 -3 -33 5 -18 11 -52 12 -75
2 -24 5 -43 9 -43 3 0 6 -19 8 -42 1 -23 7 -49 14 -57 9 -12 9 -13 0 -7 -7 4
-13 3 -13 -1 0 -5 6 -15 13 -22 10 -11 9 -12 -2 -6 -10 6 -12 4 -5 -6 4 -8 9
-18 11 -24 1 -5 4 -21 8 -35 8 -38 17 -92 18 -117 1 -13 4 -23 7 -23 3 0 7
-15 8 -32 3 -33 9 -73 12 -73 1 0 3 -15 6 -34 2 -19 7 -46 10 -60 3 -14 6 -34
7 -43 1 -10 5 -18 10 -18 4 0 5 -5 2 -10 -4 -6 -1 -17 5 -25 10 -12 10 -15 -1
-15 -9 0 -10 -3 -4 -8 10 -7 16 -24 19 -52 1 -9 6 -22 11 -29 6 -10 4 -12 -6
-6 -11 6 -12 5 -1 -6 6 -7 12 -26 12 -42 0 -20 4 -26 13 -21 9 5 9 4 0 -6 -9
-10 -9 -19 3 -43 12 -22 12 -27 2 -21 -7 5 -5 -4 6 -20 11 -17 13 -25 5 -20
-11 6 -12 5 -2 -8 7 -8 10 -18 6 -21 -3 -4 0 -7 8 -7 11 0 11 -2 -1 -10 -12
-7 -12 -10 -1 -10 7 0 11 -6 7 -15 -3 -8 -2 -15 2 -15 4 0 8 -14 9 -32 1 -17
8 -35 15 -40 10 -6 10 -8 -2 -8 -9 0 -11 -3 -5 -8 11 -8 17 -27 17 -59 0 -13
3 -23 7 -23 6 0 10 -25 14 -77 0 -12 5 -19 9 -17 4 3 9 -7 10 -23 1 -35 3 -44
12 -65 4 -9 4 -23 0 -29 -5 -9 -2 -10 9 -6 14 5 15 2 7 -18 -5 -14 -6 -25 -1
-25 5 0 12 -7 15 -16 4 -10 2 -13 -7 -8 -9 6 -9 5 0 -8 7 -8 10 -18 6 -21 -3
-4 -1 -7 5 -7 7 0 12 -5 12 -11 0 -5 -6 -7 -12 -3 -7 4 -5 -2 5 -13 9 -11 14
-22 11 -26 -3 -3 -2 -12 2 -19 9 -14 14 -31 17 -65 1 -11 5 -19 10 -16 4 2 7
-12 7 -31 0 -19 6 -41 13 -48 6 -7 13 -22 14 -33 0 -11 4 -31 8 -45 4 -14 7
-31 7 -37 1 -7 5 -13 9 -13 4 0 6 -8 5 -17 -2 -10 0 -20 5 -23 4 -3 9 -17 11
-30 2 -14 7 -31 11 -37 5 -7 5 -17 2 -23 -3 -5 -1 -10 4 -10 6 0 11 -5 11 -11
0 -5 -6 -7 -12 -4 -7 4 -6 1 3 -7 9 -7 14 -19 11 -27 -2 -8 0 -11 5 -8 5 3 9
-4 8 -16 -1 -12 3 -31 8 -42 11 -20 16 -37 19 -68 1 -9 6 -17 10 -17 4 0 8 -8
8 -18 0 -10 6 -24 13 -31 8 -9 8 -12 0 -7 -8 5 -9 -1 0 -23 6 -17 14 -28 17
-26 3 2 7 -13 9 -33 4 -67 5 -70 17 -65 8 3 11 -2 7 -15 -2 -11 0 -23 6 -26 6
-4 11 -17 11 -30 0 -12 6 -28 13 -35 10 -11 9 -12 -3 -6 -11 6 -10 3 3 -12 9
-11 14 -23 10 -26 -3 -4 -1 -7 5 -7 6 0 9 -7 6 -15 -4 -8 -1 -15 5 -15 6 0 8
-7 5 -15 -4 -8 -2 -15 3 -15 9 0 11 -6 15 -50 1 -11 6 -20 10 -20 4 0 8 -9 8
-21 0 -11 4 -18 9 -15 5 4 7 -2 4 -13 -3 -10 0 -22 6 -25 5 -4 8 -13 4 -21 -3
-8 0 -15 6 -15 6 0 11 -11 11 -25 0 -14 5 -25 11 -25 5 0 8 -4 5 -8 -2 -4 4
-26 14 -49 10 -23 16 -44 12 -47 -3 -3 0 -6 7 -6 7 0 9 -4 6 -10 -3 -5 -2 -10
3 -10 6 0 9 -6 9 -12 -1 -26 16 -78 25 -78 6 0 8 -7 4 -15 -3 -8 -1 -15 4 -15
6 0 10 -3 9 -7 -1 -5 2 -19 7 -33 4 -14 8 -27 8 -30 0 -3 6 -11 14 -19 11 -11
11 -15 0 -22 -10 -7 -10 -9 1 -9 8 0 12 -3 8 -6 -3 -4 1 -13 9 -21 8 -8 12
-19 9 -24 -4 -5 -1 -9 5 -9 6 0 8 -4 5 -10 -3 -5 -1 -10 5 -10 7 0 10 -7 7
-15 -4 -8 -2 -17 3 -20 6 -4 10 -15 10 -26 0 -10 5 -19 10 -19 6 0 10 -8 8
-18 -2 -9 2 -16 8 -15 6 1 10 -9 8 -22 -1 -14 2 -25 7 -25 6 0 7 -4 4 -10 -3
-5 -1 -10 6 -10 7 0 9 -3 6 -7 -4 -3 0 -17 8 -30 9 -13 13 -28 10 -33 -3 -6
-1 -10 5 -10 6 0 8 -4 5 -10 -3 -5 -1 -10 5 -10 6 0 8 -4 5 -10 -3 -5 -2 -10
4 -10 6 0 8 -7 5 -15 -4 -8 -1 -15 7 -15 7 0 9 -3 6 -7 -4 -3 1 -15 10 -26 13
-15 14 -18 3 -12 -10 6 -9 1 3 -13 11 -11 16 -26 12 -31 -3 -6 -1 -11 4 -11 6
0 11 -9 11 -21 0 -12 4 -17 11 -14 6 4 9 1 8 -6 -2 -8 2 -24 9 -36 7 -13 10
-23 6 -23 -4 0 0 -8 9 -18 9 -10 18 -27 20 -39 1 -12 9 -28 16 -37 8 -9 11
-19 8 -22 -3 -4 1 -13 9 -21 8 -8 12 -19 9 -24 -4 -5 -1 -9 5 -9 7 0 9 -7 6
-15 -3 -9 1 -18 9 -21 8 -4 15 -14 15 -24 0 -9 10 -29 21 -44 12 -15 19 -30
16 -33 -3 -3 3 -21 13 -41 11 -19 16 -40 13 -45 -3 -6 -1 -7 5 -3 7 4 12 4 13
-1 3 -31 10 -48 23 -55 8 -5 13 -15 10 -22 -3 -8 0 -17 5 -21 6 -3 9 -11 6
-16 -4 -5 0 -12 9 -15 8 -3 12 -12 9 -20 -3 -8 0 -14 6 -14 6 0 11 -7 11 -15
0 -8 5 -15 10 -15 6 0 10 -9 10 -19 0 -10 11 -38 24 -62 14 -24 23 -46 20 -51
-3 -4 0 -8 5 -8 6 0 11 -7 11 -16 0 -9 5 -12 12 -8 7 4 10 4 6 -1 -4 -4 -3
-14 3 -21 6 -8 9 -20 6 -28 -4 -9 2 -16 15 -20 19 -4 20 -7 7 -22 -9 -12 -10
-15 -1 -10 7 4 12 1 12 -8 0 -9 4 -16 10 -16 5 0 9 -3 8 -7 -1 -5 6 -23 15
-41 10 -18 15 -38 11 -44 -4 -6 -3 -8 3 -5 5 4 16 -6 24 -21 7 -15 20 -36 29
-46 10 -14 11 -17 1 -11 -15 8 17 -45 34 -57 5 -4 7 -8 2 -8 -4 0 4 -18 19
-41 14 -23 20 -38 12 -34 -7 3 -5 0 4 -8 10 -8 15 -17 11 -20 -3 -4 -1 -7 5
-7 7 0 12 -7 12 -15 0 -8 5 -15 11 -15 5 0 8 -4 4 -9 -3 -5 2 -16 10 -24 8 -9
15 -23 15 -31 0 -9 5 -16 10 -16 6 0 10 -7 10 -15 0 -8 5 -15 11 -15 5 0 7 -4
4 -10 -3 -5 -1 -10 5 -10 6 0 9 -4 6 -9 -3 -5 1 -14 9 -21 8 -7 15 -21 15 -32
0 -10 11 -30 25 -43 13 -14 21 -25 18 -25 -3 0 0 -7 7 -15 7 -8 9 -15 6 -15
-4 0 2 -10 14 -22 11 -12 19 -27 17 -33 -4 -9 9 -28 53 -82 6 -7 10 -19 10
-28 0 -8 5 -15 10 -15 6 0 10 -7 10 -16 0 -9 5 -12 12 -8 7 4 10 4 6 -1 -8 -8
17 -58 40 -83 7 -8 10 -18 7 -23 -4 -5 -1 -9 4 -9 6 0 11 -7 11 -15 0 -9 6
-18 14 -21 9 -3 12 -12 9 -21 -4 -11 -2 -14 5 -9 7 4 12 1 12 -8 0 -9 4 -16 9
-16 5 0 12 -7 15 -16 4 -10 2 -13 -7 -9 -6 4 -2 -2 10 -13 12 -11 19 -22 16
-26 -4 -3 -1 -6 5 -6 7 0 12 -7 12 -15 0 -8 5 -15 11 -15 5 0 7 -4 4 -10 -3
-5 -1 -10 5 -10 6 0 8 -4 5 -10 -3 -5 -1 -10 4 -10 6 0 11 -5 11 -10 0 -6 9
-20 20 -32 11 -12 20 -28 20 -35 0 -8 4 -11 10 -8 5 3 7 0 4 -8 -3 -8 2 -20
11 -27 8 -7 15 -19 15 -27 0 -8 4 -11 10 -8 5 3 10 -3 10 -14 0 -12 5 -21 10
-21 6 0 10 -5 10 -11 0 -17 36 -59 44 -51 4 3 4 -1 0 -11 -4 -11 0 -19 10 -23
9 -3 14 -10 11 -14 -3 -4 2 -13 10 -20 8 -7 12 -16 9 -21 -3 -5 0 -9 6 -9 6 0
14 -8 17 -17 4 -10 12 -23 17 -30 30 -34 34 -41 29 -47 -4 -3 0 -6 7 -6 7 0
11 -3 7 -6 -3 -3 5 -18 18 -32 13 -14 22 -29 19 -34 -3 -4 -1 -8 3 -8 13 0 43
-56 35 -65 -4 -5 -1 -5 6 -1 7 4 15 0 19 -11 3 -10 12 -22 20 -26 7 -4 13 -17
13 -27 0 -11 9 -24 20 -30 11 -6 20 -17 20 -25 0 -8 5 -15 10 -15 6 0 10 -7
10 -15 0 -8 5 -15 10 -15 6 0 10 -5 10 -11 0 -6 7 -17 15 -26 8 -8 12 -20 8
-26 -3 -7 -3 -9 2 -5 8 7 35 -15 35 -29 0 -4 11 -20 24 -35 14 -14 22 -29 19
-32 -4 -3 0 -6 7 -6 7 0 11 -3 7 -6 -3 -3 10 -21 28 -40 19 -19 32 -34 28 -34
-3 0 0 -6 6 -13 6 -8 7 -18 3 -22 -4 -5 -2 -6 3 -3 10 5 47 -27 39 -35 -2 -2
8 -17 23 -33 15 -16 26 -32 25 -36 -1 -5 3 -8 9 -8 5 0 8 -4 4 -9 -3 -5 4 -13
16 -16 15 -5 18 -10 9 -15 -8 -5 -7 -9 5 -14 10 -3 13 -11 9 -18 -4 -7 -4 -10
1 -6 12 11 35 -11 35 -33 0 -17 11 -24 32 -20 5 0 8 -6 8 -14 0 -19 38 -74 63
-93 9 -7 17 -20 17 -28 0 -8 5 -12 10 -9 6 3 10 1 10 -4 0 -6 0 -13 0 -16 0
-3 14 -18 30 -34 17 -15 30 -31 30 -35 0 -4 10 -17 23 -29 13 -12 33 -38 45
-59 12 -20 29 -39 37 -42 8 -3 15 -12 15 -21 0 -8 5 -15 10 -15 6 0 10 -8 10
-17 0 -9 3 -13 7 -10 3 4 13 -3 22 -16 9 -12 13 -22 11 -22 -3 0 2 -8 10 -17
8 -9 18 -14 23 -11 4 2 7 -3 7 -11 0 -9 5 -16 11 -16 5 0 7 -4 4 -10 -3 -5 1
-10 9 -10 9 0 16 -4 16 -9 0 -5 14 -23 31 -40 17 -17 27 -31 24 -31 -4 0 -2
-6 4 -13 6 -8 7 -18 3 -23 -4 -4 2 -2 13 6 11 8 17 11 13 6 -4 -4 -2 -13 3
-20 40 -47 49 -60 49 -68 0 -5 5 -6 10 -3 6 3 10 1 10 -5 0 -17 26 -40 35 -32
5 4 5 2 2 -4 -3 -6 6 -23 21 -39 15 -16 26 -34 24 -40 -2 -5 -1 -7 3 -3 8 8
35 -15 35 -31 0 -5 9 -12 19 -16 14 -4 18 -12 14 -23 -3 -9 -3 -14 1 -10 5 4
18 -4 30 -17 45 -50 61 -70 58 -77 -1 -5 5 -8 13 -8 8 0 15 -4 15 -8 0 -4 17
-26 37 -47 21 -22 36 -44 35 -50 -2 -5 0 -7 4 -3 6 7 28 -13 58 -53 6 -8 22
-23 36 -32 13 -9 20 -17 15 -17 -6 0 7 -15 29 -34 21 -19 35 -40 31 -46 -3 -6
-3 -10 2 -9 16 4 43 -13 43 -27 0 -8 7 -14 16 -14 8 0 13 -4 10 -9 -3 -5 10
-21 29 -36 19 -16 32 -32 29 -37 -3 -4 0 -8 6 -8 6 0 23 -12 37 -28 14 -15 30
-26 35 -24 5 1 7 -2 4 -7 -3 -5 7 -19 23 -32 16 -13 27 -28 24 -33 -4 -5 1 -7
11 -3 9 4 15 3 11 -2 -3 -6 1 -13 8 -18 7 -4 21 -19 30 -33 9 -13 17 -21 17
-17 0 4 6 2 14 -5 8 -7 12 -16 9 -20 -2 -5 1 -8 7 -8 15 0 60 -46 53 -54 -4
-3 -1 -6 6 -6 7 0 30 -18 51 -40 20 -21 40 -36 44 -33 3 4 6 1 6 -5 0 -18 42
-62 58 -62 9 0 12 -3 9 -6 -7 -7 30 -44 45 -44 4 0 8 -7 8 -15 0 -8 4 -15 9
-15 14 0 80 -67 73 -75 -4 -4 -2 -6 3 -5 19 4 38 0 32 -6 -6 -7 16 -34 28 -34
4 0 13 -7 21 -15 9 -8 13 -15 9 -15 -3 0 0 -6 7 -14 7 -8 15 -13 18 -11 3 2
14 -3 25 -11 14 -10 15 -14 4 -15 -8 0 -4 -4 9 -9 12 -5 22 -14 22 -20 0 -6 5
-8 10 -5 6 3 10 -1 10 -9 0 -9 6 -16 14 -16 8 0 17 -7 20 -16 3 -8 10 -13 15
-9 5 3 12 -4 16 -15 3 -11 11 -20 16 -20 5 0 22 -13 37 -30 16 -16 32 -27 35
-23 4 3 7 -1 7 -10 0 -11 8 -17 23 -17 18 0 19 -2 7 -10 -11 -7 -11 -10 -2
-10 7 0 28 -16 47 -35 19 -19 35 -32 35 -29 0 3 6 -1 14 -8 8 -7 11 -17 9 -22
-3 -5 0 -7 7 -4 7 2 30 -12 50 -31 52 -50 79 -71 89 -71 6 0 13 -10 16 -21 6
-17 9 -19 16 -8 7 12 9 11 10 -1 1 -8 1 -18 0 -22 0 -5 8 -8 19 -8 11 0 20 -7
20 -16 0 -8 4 -13 8 -10 5 3 15 -4 22 -15 8 -10 19 -19 25 -19 6 0 17 -9 25
-20 8 -11 19 -20 25 -20 6 0 16 -9 23 -21 7 -12 16 -19 18 -16 3 3 16 -5 29
-17 13 -11 35 -31 48 -43 14 -12 28 -19 31 -16 3 4 6 -2 6 -12 0 -10 3 -15 6
-12 4 4 15 -3 25 -15 11 -11 19 -17 19 -13 0 4 8 -2 19 -13 10 -12 23 -22 29
-22 6 0 16 -9 22 -20 6 -11 15 -20 20 -20 5 0 21 -11 36 -25 15 -14 29 -23 31
-21 2 2 14 -6 27 -18 66 -62 87 -77 96 -71 5 3 10 0 10 -7 0 -7 17 -24 38 -38
20 -14 45 -33 54 -43 9 -10 18 -17 21 -15 4 4 63 -40 85 -65 9 -9 22 -17 29
-17 7 0 13 -5 13 -12 0 -6 3 -9 6 -5 3 3 18 -5 31 -18 14 -13 37 -29 52 -37
14 -7 30 -19 34 -25 4 -7 15 -13 22 -13 8 0 15 -7 15 -16 0 -8 5 -12 10 -9 6
3 10 1 10 -6 0 -7 3 -9 7 -6 4 4 19 -5 35 -20 15 -15 28 -23 28 -19 0 4 11 -5
25 -19 14 -14 33 -25 41 -25 8 0 17 -7 20 -15 4 -8 13 -15 21 -15 8 0 11 -5 7
-12 -4 -6 -3 -8 4 -4 6 3 18 -1 26 -10 9 -8 16 -13 16 -9 0 3 10 -3 22 -14 11
-11 26 -18 31 -14 6 3 7 1 3 -5 -3 -6 7 -16 24 -24 16 -7 30 -17 30 -21 0 -5
4 -5 10 -2 5 3 10 -2 10 -12 0 -12 3 -14 8 -6 6 9 12 7 22 -7 8 -11 20 -20 27
-20 7 0 13 -4 13 -10 0 -5 5 -10 11 -10 6 0 22 -9 36 -20 14 -11 29 -17 34
-14 5 3 9 -1 9 -9 0 -17 27 -30 43 -20 7 3 9 3 5 -2 -9 -10 13 -32 38 -37 10
-2 18 -10 16 -17 -1 -7 2 -10 7 -7 5 4 16 0 24 -8 8 -8 17 -12 21 -9 3 4 6 1
6 -5 0 -7 7 -12 15 -12 8 0 15 -4 15 -10 0 -5 7 -10 15 -10 8 0 15 -5 15 -12
0 -6 3 -9 6 -5 3 3 11 2 18 -4 24 -20 87 -59 96 -59 6 0 10 -4 10 -10 0 -5 7
-10 16 -10 20 0 45 -25 36 -35 -4 -5 -2 -5 5 -1 6 3 15 1 18 -5 4 -5 13 -8 21
-5 8 3 14 -1 14 -10 0 -8 5 -12 10 -9 6 3 10 1 10 -4 0 -6 9 -11 21 -11 11 0
17 -5 14 -10 -3 -6 1 -10 9 -10 9 0 16 -5 16 -11 0 -5 4 -8 9 -4 5 3 16 -1 24
-9 8 -8 17 -12 21 -9 3 4 6 1 6 -6 0 -7 4 -9 10 -6 5 3 10 1 10 -4 0 -6 7 -11
15 -11 8 0 15 -4 15 -10 0 -5 6 -10 14 -10 7 0 26 -10 42 -23 16 -12 31 -22
34 -22 3 0 4 -3 3 -6 -1 -3 5 -6 13 -7 7 -1 21 -3 29 -4 8 -1 12 -5 9 -10 -3
-4 2 -8 10 -8 9 0 16 -5 16 -12 0 -6 3 -9 6 -5 4 3 13 -1 21 -9 8 -8 19 -12
24 -9 5 4 9 2 9 -3 0 -6 13 -14 28 -20 16 -5 36 -17 45 -27 9 -9 17 -13 17 -9
0 4 10 -1 22 -12 14 -13 19 -14 14 -4 -5 9 -2 8 7 -2 8 -10 17 -15 20 -11 4 3
7 1 7 -5 0 -7 9 -12 20 -12 11 0 25 -9 32 -19 6 -10 17 -17 23 -15 7 3 18 -2
25 -11 7 -8 21 -15 32 -15 10 0 16 -5 13 -10 -3 -6 3 -10 14 -10 12 0 21 -4
21 -10 0 -5 9 -10 19 -10 11 0 26 -7 34 -15 8 -8 17 -11 21 -8 3 4 6 1 6 -5 0
-7 9 -12 20 -12 11 0 20 -4 20 -9 0 -10 39 -27 52 -23 5 1 8 -3 8 -10 0 -6 3
-9 6 -5 4 3 13 -1 21 -9 8 -8 19 -12 24 -9 5 4 9 2 9 -4 0 -5 16 -15 35 -22
19 -7 35 -17 35 -21 0 -4 6 -8 14 -8 18 0 67 -26 61 -32 -3 -2 1 -5 8 -6 32
-3 52 -11 50 -20 -2 -6 6 -9 17 -7 11 2 20 0 20 -5 0 -8 33 -23 53 -25 5 0 15
-9 23 -19 10 -14 14 -16 14 -5 0 12 2 12 9 0 5 -7 14 -10 20 -7 6 4 11 1 11
-8 0 -10 6 -13 15 -10 8 4 15 1 15 -5 0 -6 8 -11 19 -11 10 0 24 -6 30 -14 7
-8 21 -13 32 -11 11 2 17 0 14 -5 -3 -5 6 -12 20 -16 14 -3 25 -11 25 -18 0
-6 5 -4 10 4 8 13 10 12 10 -3 0 -10 6 -17 13 -16 16 2 77 -21 77 -30 0 -4 10
-7 22 -8 11 -1 24 -6 27 -11 3 -6 15 -12 26 -14 11 -1 23 -7 26 -11 3 -4 15
-9 27 -10 11 0 19 -4 16 -8 -4 -7 44 -24 59 -21 4 1 7 -3 7 -10 0 -6 3 -9 6
-5 3 3 20 -2 37 -12 33 -18 86 -36 100 -33 4 1 7 -5 7 -14 0 -8 5 -12 10 -9 6
4 18 1 26 -6 8 -6 17 -9 20 -6 4 3 13 -1 21 -9 8 -8 18 -12 23 -9 4 3 13 -2
20 -10 7 -8 16 -13 20 -10 5 3 11 1 15 -4 3 -6 12 -8 20 -4 8 3 15 0 15 -5 0
-10 26 -23 43 -21 4 0 20 -7 34 -16 17 -12 23 -13 18 -4 -5 8 1 6 13 -4 12
-11 26 -16 33 -11 8 5 10 3 4 -6 -6 -10 -4 -12 8 -7 10 4 17 2 17 -4 0 -6 7
-8 16 -5 10 4 13 2 8 -6 -5 -7 -2 -9 9 -5 9 3 17 1 19 -4 2 -6 10 -11 18 -13
42 -8 70 -19 70 -28 0 -5 4 -7 8 -4 7 4 51 -12 96 -36 13 -7 16 -6 11 2 -4 7
4 5 17 -4 14 -9 28 -13 31 -9 4 3 7 1 7 -5 0 -7 8 -12 18 -12 10 0 28 -8 41
-17 14 -9 21 -11 17 -5 -4 6 5 5 21 -3 15 -8 34 -15 41 -15 7 0 11 -4 7 -9 -3
-5 7 -9 22 -9 16 0 41 -7 57 -15 16 -9 33 -14 38 -11 4 3 8 0 8 -5 0 -6 3 -10
8 -10 4 1 10 0 15 -1 4 -1 12 -4 17 -5 6 -1 11 -3 13 -4 1 -2 13 -5 27 -7 13
-2 28 -10 32 -17 4 -6 8 -9 8 -4 0 4 16 0 36 -8 20 -8 45 -15 56 -15 10 0 17
-4 14 -8 -2 -4 7 -9 22 -10 15 -1 28 -6 30 -12 2 -5 10 -6 18 -3 8 3 14 1 14
-5 0 -6 8 -9 18 -7 9 1 29 -4 43 -11 15 -7 29 -10 33 -7 3 4 6 1 6 -5 0 -7 11
-12 25 -12 14 0 25 -4 25 -8 0 -4 8 -8 18 -9 26 -1 58 -10 80 -22 11 -6 22 -7
26 -4 3 3 6 2 6 -4 0 -5 6 -10 13 -10 6 0 21 -4 31 -9 15 -6 17 -4 11 7 -5 8
-1 7 12 -4 11 -9 27 -17 37 -17 10 0 14 -5 10 -12 -4 -7 -3 -8 4 -4 6 4 21 2
33 -5 16 -8 20 -8 14 1 -5 9 -1 8 16 -1 22 -12 29 -15 62 -22 6 -1 18 -6 25
-11 7 -4 16 -5 19 -2 3 3 22 -3 43 -14 21 -11 40 -17 43 -13 4 3 14 2 24 -2
10 -5 20 -9 23 -9 3 -1 16 -8 29 -15 18 -10 22 -10 16 0 -5 7 -4 10 2 6 20
-13 69 -30 88 -32 11 -1 28 -5 37 -9 9 -4 22 -5 28 -1 5 3 10 2 10 -3 0 -6 7
-13 16 -16 10 -4 13 -2 8 7 -6 9 -4 9 7 1 8 -6 22 -10 32 -9 9 2 15 -1 11 -6
-3 -5 7 -9 21 -9 18 0 24 -4 19 -12 -6 -10 -4 -10 8 0 11 9 18 10 23 2 3 -6
11 -8 16 -5 5 4 9 1 9 -5 0 -6 5 -8 10 -5 6 4 17 1 25 -5 8 -7 22 -10 30 -6 8
3 15 1 15 -5 0 -6 5 -7 10 -4 6 4 17 1 25 -5 11 -10 15 -10 15 -1 0 7 5 9 10
6 6 -4 8 -10 6 -13 -2 -4 8 -7 22 -6 15 1 32 -1 37 -5 6 -3 21 -6 35 -7 14 0
24 -6 22 -13 -1 -7 2 -10 8 -6 6 4 18 1 27 -7 12 -9 15 -9 9 0 -10 16 4 15 47
-3 27 -11 37 -12 40 -2 4 9 6 9 6 0 1 -7 9 -13 19 -13 10 0 23 -5 30 -12 9 -9
12 -9 12 2 0 11 3 11 12 2 7 -7 25 -12 41 -12 15 0 26 -4 23 -8 -2 -4 7 -8 22
-9 37 -1 96 -11 124 -21 13 -5 35 -8 50 -7 15 0 24 -3 22 -7 -4 -7 39 -12 84
-11 6 1 12 -2 12 -6 0 -4 16 -7 35 -6 19 0 35 -3 35 -8 0 -4 8 -7 18 -6 9 2
28 -3 41 -10 17 -9 21 -10 16 -1 -6 9 -3 9 12 2 10 -6 31 -9 46 -8 14 2 24 -1
21 -5 -3 -5 13 -9 36 -9 23 0 39 -3 37 -8 -3 -4 15 -8 39 -9 25 -1 51 -7 59
-13 11 -10 15 -10 15 -1 0 7 5 9 11 6 5 -4 25 -9 42 -12 62 -9 77 -12 86 -17
5 -4 12 0 14 6 4 10 6 10 6 1 1 -7 14 -13 29 -13 15 0 33 -5 40 -12 9 -9 12
-9 12 0 0 8 7 9 25 2 13 -5 43 -10 65 -12 23 -1 43 -5 46 -9 2 -4 16 -6 30 -3
16 3 23 1 19 -6 -3 -5 -1 -10 4 -10 6 0 11 5 11 11 0 8 5 8 15 -1 12 -10 15
-10 15 1 0 12 2 12 9 0 5 -8 16 -11 24 -8 8 3 18 3 21 0 7 -7 41 -12 99 -15
20 -2 37 -7 37 -11 0 -5 6 -4 14 2 10 8 16 9 21 1 3 -5 21 -10 39 -10 17 0 38
-6 45 -13 10 -8 12 -8 7 0 -4 8 1 11 14 10 11 -1 20 -4 20 -7 0 -4 15 -7 33
-8 72 -3 103 -8 116 -16 10 -7 12 -6 6 4 -6 9 -4 11 6 5 7 -5 29 -10 49 -12
94 -7 117 -10 128 -17 6 -4 21 -2 33 5 12 6 19 7 15 1 -3 -5 14 -10 42 -11 26
-1 54 -3 62 -3 8 0 21 -6 29 -12 11 -8 13 -8 7 2 -4 6 -3 12 3 12 5 0 13 -5
17 -11 4 -8 9 -7 15 2 7 12 9 12 9 0 0 -10 3 -11 14 -2 8 7 17 8 20 3 3 -5 30
-9 60 -8 30 1 52 -3 49 -8 -3 -4 4 -5 16 -1 12 3 21 2 21 -4 0 -5 10 -7 23 -5
12 3 27 5 32 5 6 -1 28 -2 50 -4 22 -1 45 -6 52 -10 6 -4 14 -3 18 3 3 6 14 7
23 2 9 -4 31 -6 47 -5 54 6 70 4 93 -10 6 -5 12 -4 12 1 0 12 34 11 42 -2 6
-8 8 -8 8 0 0 6 10 10 23 8 12 -1 22 -3 22 -4 0 -7 36 -6 41 1 3 5 12 5 23 0
22 -12 82 -11 98 1 7 6 15 3 22 -9 6 -10 11 -13 11 -5 0 9 6 10 18 5 9 -5 54
-8 99 -7 45 0 80 -2 78 -6 -2 -4 2 -7 10 -7 8 0 12 3 10 7 -2 4 9 7 25 7 17 0
30 -5 30 -11 0 -7 3 -7 8 -1 11 15 55 18 46 2 -6 -9 -4 -9 8 1 12 9 18 10 23
2 5 -8 11 -8 19 -1 9 7 16 7 23 0 8 -8 13 -8 17 0 4 6 12 11 17 11 6 0 8 -4 5
-9 -7 -11 13 -9 32 2 7 5 12 3 12 -3 0 -8 6 -7 21 1 16 8 23 8 29 -1 6 -9 9
-9 13 1 5 12 6 12 6 0 1 -11 4 -11 18 0 13 11 17 11 20 2 3 -9 10 -10 24 -3
13 7 19 7 19 1 0 -7 9 -7 25 -1 16 6 25 6 25 -1 0 -6 8 -6 21 2 16 8 23 8 29
-1 5 -9 9 -9 14 -1 4 6 12 11 17 11 6 0 7 -5 3 -11 -5 -8 -1 -8 14 0 27 14 35
14 26 -1 -6 -10 -4 -10 8 0 11 9 18 10 23 2 4 -7 12 -7 25 0 13 7 21 7 25 0 4
-6 12 -7 18 -3 16 10 58 13 53 4 -3 -4 1 -8 9 -8 8 0 12 3 10 7 -3 4 38 7 90
6 57 -1 95 3 95 9 0 6 5 3 10 -5 5 -8 10 -10 10 -4 0 6 13 9 30 6 21 -3 30 0
30 9 0 11 2 11 10 -1 5 -8 10 -10 10 -5 0 6 5 3 10 -5 7 -11 10 -11 10 -2 0 7
5 10 10 7 6 -3 10 0 10 7 0 10 2 10 9 0 4 -8 12 -14 16 -14 4 0 12 6 16 14 7
10 9 10 9 0 0 -10 5 -10 21 -1 15 8 19 8 15 0 -5 -8 0 -8 16 -3 13 5 51 8 85
7 34 -1 60 1 58 4 -2 4 10 6 26 7 16 1 26 -3 22 -8 -3 -6 3 -5 14 1 14 7 24 7
33 -2 9 -8 11 -8 6 0 -4 8 9 11 44 9 28 -1 50 1 50 4 0 3 27 5 60 5 33 0 60 2
60 5 0 3 19 5 43 4 23 0 45 5 49 10 5 7 8 6 8 -3 0 -11 3 -11 17 0 15 12 16
12 8 -1 -8 -13 -7 -13 8 -1 14 11 17 11 17 0 0 -11 2 -11 9 -1 4 8 19 11 34 8
15 -2 29 -1 32 4 3 5 16 5 31 0 18 -7 23 -7 18 1 -4 8 1 9 16 4 17 -6 21 -4
14 6 -6 12 -5 12 8 1 9 -7 19 -9 22 -4 3 4 32 8 64 8 49 -1 59 1 54 14 -5 13
-3 13 10 2 11 -9 18 -10 23 -2 4 6 12 7 24 0 12 -6 22 -5 29 2 7 7 12 9 12 6
0 -4 13 -3 30 2 20 6 30 5 30 -2 0 -7 4 -7 13 1 8 6 17 8 20 4 4 -3 14 0 24 8
14 12 16 12 8 0 -6 -10 -4 -12 5 -6 13 8 52 14 108 16 12 1 22 7 22 13 0 6 4
5 9 -3 6 -9 10 -10 16 -2 5 9 11 9 23 -1 10 -8 13 -9 9 -1 -5 8 3 11 25 10 21
-1 32 3 31 10 -2 7 4 10 12 7 8 -4 12 -11 8 -18 -4 -6 1 -4 11 4 10 8 32 13
48 11 21 -2 28 1 23 9 -6 9 -2 9 14 1 11 -7 21 -8 21 -3 0 5 14 8 30 7 17 -1
30 2 30 7 0 7 5 6 13 -1 8 -6 17 -7 21 -3 4 4 12 8 17 8 5 1 11 3 14 4 3 1 13
3 23 4 9 1 23 5 31 10 10 7 12 6 6 -3 -6 -10 -3 -11 11 -3 11 5 31 9 47 8 20
-1 26 2 22 13 -4 11 -2 11 8 3 8 -7 17 -9 20 -6 6 6 29 9 105 15 17 2 32 6 32
9 0 4 12 7 28 8 15 1 41 4 57 7 17 4 39 8 50 10 11 2 22 4 25 5 3 1 13 1 24 0
10 -1 16 2 13 7 -3 5 12 8 34 7 21 0 39 2 39 6 0 3 12 5 28 5 15 -1 32 2 37 6
6 5 29 9 50 11 22 2 46 10 53 18 7 8 12 11 11 5 -3 -21 2 -30 9 -18 4 7 17 14
27 16 11 1 26 6 32 10 8 5 13 3 13 -5 0 -10 2 -10 9 1 5 7 14 10 20 7 6 -4 11
-1 11 6 0 9 3 9 10 -2 5 -8 10 -10 10 -4 0 11 7 13 55 16 14 1 25 4 25 8 0 3
10 6 23 6 12 1 33 5 47 9 14 3 32 7 40 7 8 0 21 6 29 12 12 9 13 8 6 -3 -6
-11 -5 -12 6 -5 16 9 35 15 62 17 9 1 17 5 17 9 0 4 8 7 18 7 52 3 121 19 141
35 12 8 13 8 7 -2 -6 -11 -4 -11 10 -3 17 9 142 41 172 43 6 1 12 5 12 9 0 4
9 6 20 4 11 -2 26 3 34 11 10 9 16 10 18 3 3 -8 10 -6 21 5 12 13 17 14 17 4
0 -10 3 -9 10 2 5 8 12 11 16 8 4 -4 16 -2 28 4 11 7 29 11 39 9 9 -1 17 2 17
6 0 5 12 9 28 8 15 0 26 5 25 11 -1 5 12 9 30 8 18 -1 38 2 44 8 7 6 13 7 13
3 0 -4 6 -2 14 4 7 6 25 12 40 13 14 1 26 6 26 11 0 4 5 5 10 2 6 -4 17 -1 25
5 8 6 18 9 24 6 5 -4 17 1 25 10 12 11 16 12 16 2 0 -10 2 -10 9 1 5 7 14 10
20 7 6 -4 11 -3 11 1 0 8 15 12 58 15 6 1 12 6 12 11 0 5 7 7 15 4 8 -4 17 -2
20 4 4 5 10 7 15 4 5 -3 16 2 24 11 12 11 16 12 16 2 0 -10 2 -10 8 -1 4 6 21
14 37 17 17 2 32 5 35 6 3 1 8 2 13 1 4 0 7 4 7 11 0 6 3 9 6 5 4 -3 19 0 34
8 15 8 30 11 34 8 3 -4 13 2 22 13 8 10 13 13 9 7 -7 -15 11 -18 19 -4 3 5 22
12 41 15 19 4 35 11 35 16 0 5 12 7 26 4 18 -3 23 -1 18 7 -5 9 -2 10 9 6 9
-3 23 0 31 8 7 8 16 12 19 9 3 -3 21 2 41 11 20 9 47 18 60 19 13 0 22 5 18
10 -3 5 2 7 11 3 10 -3 17 -2 17 4 0 6 5 7 10 4 6 -3 10 -1 10 5 0 6 5 8 10 5
6 -4 17 -1 25 5 8 7 15 9 15 5 0 -4 7 -2 15 5 8 7 15 9 15 5 0 -4 7 -2 15 5 8
7 15 9 15 5 0 -4 7 -2 15 5 8 6 19 9 25 5 5 -3 10 2 10 12 0 14 2 15 9 5 7
-11 11 -11 24 2 8 9 25 16 36 16 11 0 22 4 26 9 3 6 14 8 25 6 12 -2 18 0 15
5 -5 7 45 24 61 20 4 -1 10 4 15 11 4 7 16 13 26 14 30 3 47 9 61 22 7 7 20 9
29 6 12 -5 14 -3 8 7 -5 9 -4 11 4 6 6 -4 23 0 36 8 14 9 25 14 25 10 0 -4 7
-1 15 6 8 6 18 9 24 6 5 -3 11 -1 13 4 2 6 13 12 25 13 12 0 19 5 17 9 -3 4 7
8 21 8 17 0 24 4 19 12 -4 6 -3 8 3 5 6 -4 23 0 39 8 15 7 31 12 36 9 4 -3 8
0 8 6 0 7 6 10 12 8 7 -3 19 2 27 9 7 8 20 12 27 9 8 -3 14 -1 14 4 0 4 14 11
30 15 17 4 30 11 30 16 0 6 4 8 9 4 5 -3 12 -1 16 5 4 6 10 8 15 5 5 -3 16 2
24 11 9 8 16 13 16 9 0 -3 10 1 23 10 13 8 27 12 31 8 4 -5 14 1 22 11 8 11
14 16 14 12 0 -5 7 -2 17 5 9 8 18 13 20 11 7 -6 143 51 143 60 0 5 4 7 9 3 5
-3 15 1 23 8 7 8 19 12 26 9 6 -2 12 1 12 7 0 6 9 11 19 11 11 0 23 5 26 10 4
6 11 8 16 5 5 -4 9 -1 9 4 0 6 9 11 20 11 11 0 20 4 20 10 0 5 16 12 35 16 19
3 35 10 35 14 0 7 8 10 45 19 6 2 16 8 24 14 7 6 20 12 29 14 9 1 18 7 20 13
2 5 8 8 13 4 5 -3 9 0 9 5 0 6 3 10 8 10 22 -4 42 2 37 11 -3 6 3 10 14 10 12
0 21 5 21 12 0 6 3 8 6 5 4 -3 16 -1 28 5 11 7 24 11 29 10 4 -1 7 2 7 7 0 5
11 12 25 15 16 4 23 11 19 18 -4 7 -3 8 4 4 6 -4 26 1 44 11 18 9 36 16 41 15
4 -1 7 3 7 9 0 6 7 9 15 5 9 -3 15 0 15 9 0 9 6 12 15 9 8 -4 17 1 21 10 3 9
10 14 14 11 5 -3 11 -1 15 5 4 6 11 8 16 5 5 -4 9 -2 9 4 0 9 19 18 45 22 6 1
15 9 22 18 7 9 13 12 13 8 0 -5 13 1 29 12 15 11 31 18 35 14 3 -3 6 -1 6 6 0
7 4 10 9 7 5 -3 14 1 21 9 7 8 16 12 21 9 5 -3 9 0 9 7 0 7 3 10 6 6 4 -3 13
1 21 9 8 8 19 12 24 9 5 -4 9 -1 9 4 0 6 7 11 15 11 8 0 15 5 15 11 0 6 7 8
16 5 8 -3 12 -2 9 4 -3 6 1 10 9 10 9 0 16 5 16 10 0 6 9 10 20 10 11 0 20 4
20 9 0 5 7 12 16 15 10 4 13 2 8 -6 -4 -6 4 -3 18 8 14 10 24 21 23 24 -2 3 6
7 17 7 12 1 24 6 27 11 3 5 16 12 29 16 13 4 19 12 16 18 -5 7 -2 9 8 5 9 -3
21 0 27 6 6 6 11 8 11 4 0 -4 9 1 19 10 39 35 49 42 56 35 4 -4 13 2 21 12 8
11 14 16 14 10 0 -5 4 -5 8 1 4 6 28 21 54 34 28 14 45 28 41 35 -3 6 -3 8 2
4 4 -4 17 -2 29 4 11 7 25 12 29 13 4 0 12 7 17 15 5 8 10 11 10 7 0 -5 7 -1
16 7 8 9 20 14 25 11 5 -4 9 -1 9 5 0 6 11 15 25 20 14 5 25 14 25 20 0 5 3 9
8 9 18 -3 31 3 58 26 16 14 35 23 42 20 7 -3 10 0 7 5 -3 6 2 13 12 17 10 3
32 16 49 29 18 13 38 25 45 26 8 2 21 11 30 20 9 10 19 15 23 11 3 -3 6 -1 6
6 0 7 5 9 10 6 6 -3 10 -1 10 6 0 7 3 10 6 6 8 -8 44 25 38 35 -3 4 2 5 10 2
9 -3 16 -1 16 5 0 6 7 8 17 4 11 -4 14 -3 9 5 -4 7 3 14 19 18 14 3 25 9 25
13 0 3 23 19 50 35 27 16 47 33 44 38 -3 4 1 5 8 3 8 -3 24 4 36 15 12 11 22
18 22 15 0 -2 11 5 24 16 13 12 26 19 29 18 3 -2 15 7 27 21 12 14 18 19 15
12 -6 -11 -3 -11 13 -1 12 7 19 16 16 20 -2 4 8 10 21 13 14 4 23 11 20 16 -3
6 1 10 9 10 8 0 22 7 30 16 9 8 16 12 16 8 0 -4 9 3 19 15 11 13 25 20 30 16
6 -3 11 1 11 10 0 9 5 13 10 10 6 -3 13 1 16 9 3 9 12 16 18 16 7 0 22 9 34
20 12 12 22 17 22 13 0 -4 5 0 11 10 5 9 16 17 23 17 8 0 16 7 20 15 3 8 12
15 20 15 7 0 16 7 20 15 3 8 12 15 21 15 8 0 15 5 15 10 0 6 6 10 13 10 7 0
19 9 27 19 7 11 17 18 22 15 4 -3 11 2 14 10 3 9 12 16 19 16 7 0 15 3 17 8 6
14 76 61 82 55 3 -4 6 1 6 10 0 9 7 17 15 17 8 0 15 5 15 10 0 6 3 9 8 8 4 -1
20 10 36 25 16 14 33 24 38 21 4 -3 7 -2 6 3 -2 4 0 9 5 11 4 1 15 10 25 20
35 32 62 52 72 52 6 0 10 7 10 16 0 8 5 12 10 9 6 -3 10 -1 10 5 0 6 5 8 10 5
6 -3 10 -1 10 5 0 6 5 8 10 5 6 -4 9 -1 8 5 -2 7 6 17 17 23 11 7 30 22 42 35
12 12 26 23 30 25 5 1 7 6 5 10 -1 5 2 6 7 3 5 -4 17 4 25 16 9 12 18 19 22
15 3 -3 21 10 39 29 18 18 36 34 41 34 5 0 28 17 50 38 62 56 104 91 104 86 0
-2 18 14 40 36 23 23 45 38 50 35 6 -4 10 -1 10 4 0 14 37 51 43 44 3 -2 13 6
21 20 9 13 28 29 42 36 15 6 22 16 18 23 -4 7 -3 8 5 4 7 -5 20 3 32 18 11 14
27 26 35 26 8 0 13 6 12 13 -2 6 3 11 10 9 8 -1 11 2 7 8 -4 7 2 14 14 17 11
3 18 9 15 14 -3 5 1 9 8 9 7 0 23 12 35 27 13 14 23 23 23 19 0 -4 11 4 23 18
13 14 27 22 31 18 4 -4 6 -2 4 4 -3 12 39 54 54 54 5 0 6 5 3 10 -3 6 1 10 9
10 8 0 20 9 26 20 6 11 15 18 21 15 5 -4 9 -1 9 4 0 6 9 20 20 31 11 11 20 18
20 15 0 -3 6 0 14 7 8 7 12 16 9 21 -2 4 2 7 9 7 7 0 19 9 26 20 7 12 17 18
23 15 5 -4 8 -1 7 7 -2 7 3 12 10 10 6 -1 12 2 12 7 0 9 60 74 70 75 3 1 4 4
3 8 -2 4 9 11 23 14 13 4 23 9 20 12 -9 8 15 32 25 26 5 -3 9 -2 8 3 -3 17 1
33 9 31 4 -2 40 30 81 70 41 39 78 72 83 72 4 0 4 7 1 17 -4 10 -2 14 4 10 13
-8 36 17 25 27 -4 4 -2 7 3 6 19 -4 36 0 32 7 -6 10 19 34 27 26 3 -4 6 -1 6
5 0 14 78 92 91 92 6 0 8 3 5 8 -2 4 2 16 10 27 8 10 14 15 14 9 0 -5 11 3 24
18 12 15 26 25 30 23 3 -3 4 -2 1 2 -8 10 16 33 28 26 5 -3 7 -1 3 5 -3 6 4
18 16 26 12 9 19 16 16 16 -4 0 4 11 18 25 14 14 29 25 34 25 6 0 10 5 10 11
0 7 14 25 30 41 17 15 30 33 30 39 0 5 4 8 9 4 5 -3 12 4 16 15 4 11 11 18 16
15 5 -4 9 -1 9 4 0 14 43 57 53 53 4 -1 7 7 7 19 0 11 5 17 10 14 6 -3 10 1
10 10 0 9 5 13 10 10 6 -3 10 -2 10 4 0 5 17 27 38 47 20 21 30 34 22 30 -8
-4 -6 0 4 8 11 9 23 16 28 16 4 0 7 4 6 9 -2 5 9 20 24 34 15 14 24 28 21 31
-4 3 1 6 11 6 9 0 14 5 11 10 -3 6 -1 10 5 10 6 0 8 5 5 10 -4 6 -3 9 2 8 4
-1 22 12 40 30 17 17 29 32 27 32 -3 0 7 11 22 25 15 14 24 25 21 25 -3 0 10
16 29 36 19 20 34 41 34 45 0 5 6 9 14 9 8 0 18 5 22 12 4 7 3 8 -4 4 -21 -13
-13 1 21 36 76 81 104 117 93 122 -6 2 -4 5 5 5 17 1 55 49 51 64 -1 4 4 7 11
7 6 0 18 14 25 30 8 17 18 28 23 24 5 -3 9 0 9 5 0 6 9 20 20 31 11 11 18 20
15 20 -3 0 4 11 17 24 44 46 59 67 52 78 -4 7 -3 8 4 4 7 -4 12 -2 12 4 0 6 5
8 10 5 6 -3 10 1 10 9 0 8 6 21 14 29 8 8 27 32 41 53 15 22 30 38 33 38 4 -1
6 2 4 7 -1 5 6 17 15 27 31 32 58 67 58 74 0 3 14 19 30 34 17 15 28 28 25 28
-2 1 7 18 21 38 14 21 29 35 34 30 4 -4 6 0 3 8 -2 8 8 27 24 42 16 15 26 28
23 28 -3 0 -1 6 5 13 44 53 69 91 63 100 -3 5 -1 7 4 4 6 -4 17 1 24 10 12 14
12 16 -1 9 -8 -4 -6 0 4 8 11 9 17 16 13 16 -4 0 5 12 20 27 16 16 30 31 31
35 10 30 15 37 23 32 5 -3 9 -2 8 3 -2 15 13 53 20 49 4 -3 13 4 20 16 10 16
10 19 -1 13 -7 -3 -5 0 5 8 9 8 17 20 17 26 0 7 5 9 12 5 8 -5 9 -2 5 9 -4 11
-1 17 8 17 8 0 14 3 13 8 -2 7 31 62 43 72 3 3 9 15 13 28 4 12 11 20 15 18 4
-3 14 10 21 29 7 19 17 32 21 29 4 -2 11 6 15 18 3 12 13 28 20 36 8 7 14 20
14 28 0 8 4 13 9 10 5 -4 12 7 16 23 3 16 13 32 21 35 9 3 12 10 9 16 -3 5 1
10 10 10 9 0 13 5 10 11 -4 6 0 16 10 22 9 7 17 19 18 28 2 8 13 26 25 39 12
13 22 30 22 37 0 7 3 13 8 13 4 0 16 18 26 40 11 22 23 40 28 40 5 0 7 4 4 9
-4 5 -2 11 3 13 5 1 11 10 13 18 2 8 11 22 20 31 10 9 15 19 11 23 -3 3 0 6 7
6 7 0 10 3 7 6 -4 4 2 15 13 24 13 12 18 24 13 35 -4 12 -3 16 5 11 6 -3 13 3
17 14 4 12 11 17 18 14 7 -4 9 -4 5 1 -9 9 29 83 52 103 13 12 13 13 0 7 -10
-4 -9 -2 2 8 10 8 15 17 11 20 -3 4 0 7 7 7 7 0 11 3 7 6 -3 4 5 21 19 40 15
19 23 38 18 45 -5 8 -3 9 6 4 10 -6 12 -4 7 9 -4 9 -3 15 2 12 8 -5 19 11 21
32 1 4 8 10 15 15 8 4 11 15 8 24 -4 10 -2 14 5 9 6 -3 14 3 18 16 4 13 15 34
25 47 10 13 16 27 14 31 -3 5 -1 11 5 15 6 4 7 11 4 17 -5 7 -1 9 9 5 9 -3 16
-3 15 1 -4 14 26 81 34 76 4 -3 8 4 8 15 0 12 5 21 11 21 5 0 8 4 5 9 -3 5 1
14 9 21 8 7 15 21 15 31 0 11 4 19 9 19 5 0 17 20 28 45 10 25 22 45 26 45 5
0 5 5 2 10 -3 6 -1 10 5 10 7 0 9 7 6 17 -4 10 -4 14 0 10 9 -9 38 38 47 76 4
15 12 27 18 27 6 0 7 5 4 10 -3 6 -1 10 6 10 7 0 9 8 6 21 -3 12 -3 18 0 15 9
-9 35 32 28 44 -3 6 -2 10 3 10 5 0 17 12 27 26 9 15 12 23 5 19 -13 -8 19 46
33 56 5 3 8 9 8 13 -1 3 0 8 0 11 1 3 2 11 3 18 1 6 7 11 13 10 7 -2 10 6 8
17 -2 11 1 20 6 20 6 0 8 4 5 9 -3 5 1 14 9 21 8 7 12 16 9 21 -3 5 0 9 6 9 6
0 8 5 5 10 -3 6 -1 10 6 10 7 0 9 3 6 7 -4 3 0 14 9 24 9 10 14 25 10 34 -3 9
-2 14 3 11 5 -3 16 11 25 32 9 20 23 50 31 65 8 16 15 35 15 43 0 8 5 14 10
14 6 0 9 3 8 8 -1 4 3 17 10 30 7 12 10 22 7 22 -4 0 1 7 9 16 9 8 14 19 11
24 -3 5 -1 11 5 15 6 4 8 11 5 16 -4 5 -2 9 4 9 9 0 21 26 20 44 0 5 3 12 8
15 12 9 56 105 51 114 -1 1 5 13 12 27 8 14 13 28 12 33 -1 4 3 7 9 7 6 0 9 9
6 20 -3 11 -2 18 1 16 4 -2 17 16 28 40 12 24 18 42 14 39 -5 -3 2 15 15 40
14 25 21 45 17 45 -4 0 -2 4 3 8 15 11 39 56 25 47 -14 -9 10 36 25 47 6 4 6
8 1 8 -5 0 -3 7 4 15 7 8 10 15 6 15 -4 0 3 18 14 40 11 23 18 45 15 49 -3 5
0 11 7 13 6 2 13 13 14 24 6 31 50 134 56 129 3 -3 4 6 3 20 -2 14 0 25 5 25
10 0 30 56 23 64 -3 3 2 8 11 12 13 5 14 9 5 20 -9 11 -8 15 5 20 9 3 14 9 11
13 -2 4 3 20 10 35 8 16 12 32 9 37 -3 5 0 9 6 9 6 0 9 4 5 9 -3 5 -1 12 5 16
5 3 10 15 10 26 0 11 4 18 9 15 5 -4 8 2 6 11 -1 10 4 28 11 41 8 12 12 22 8
22 -4 0 -1 7 6 15 6 8 9 19 6 24 -4 5 -2 12 4 16 5 3 10 15 10 26 0 11 4 18 9
14 6 -3 8 3 6 15 -2 11 1 22 6 25 5 4 7 10 4 15 -3 5 -1 11 5 15 6 4 8 11 5
16 -4 5 -2 9 3 9 8 0 19 33 24 78 1 6 5 12 10 12 4 0 8 12 8 26 0 14 4 23 9
19 6 -3 8 6 5 20 -2 14 0 25 5 25 5 0 12 15 16 33 11 56 16 67 26 62 5 -3 6 1
3 9 -3 8 0 24 6 36 9 17 9 21 0 15 -7 -4 -6 2 3 16 15 23 33 87 29 102 -1 4 2
7 8 7 5 0 10 11 10 24 0 14 5 28 10 31 6 4 8 10 5 15 -3 5 -1 11 5 15 6 4 8
11 5 16 -4 5 -1 9 6 9 8 0 8 4 -1 15 -8 10 -9 15 -2 15 6 0 14 16 18 35 3 19
10 35 15 35 5 0 6 6 3 14 -3 8 0 17 6 21 9 6 9 10 -1 16 -10 6 -11 9 -1 9 6 0
12 11 12 25 0 14 4 25 9 25 6 0 8 9 6 20 -2 11 0 20 5 20 5 0 7 9 5 20 -2 11
1 20 7 20 5 0 8 7 4 15 -3 8 -2 15 3 15 4 0 8 6 9 13 0 6 3 23 7 37 4 14 7 31
7 38 1 6 5 12 9 12 4 0 7 6 6 13 -1 29 4 48 11 44 4 -3 7 7 8 21 0 15 3 38 7
52 3 14 6 31 6 38 1 7 4 11 9 9 4 -3 7 5 8 16 2 31 8 60 17 75 5 7 3 12 -5 12
-10 0 -10 2 -1 8 6 4 14 19 17 34 2 14 9 35 15 46 8 15 8 22 -2 25 -9 4 -9 6
1 6 7 1 10 5 7 11 -3 5 -2 10 3 10 5 0 8 11 7 25 -2 14 0 25 4 25 6 0 11 25
14 68 0 6 4 12 8 12 4 0 6 9 4 20 -2 11 0 20 5 20 4 0 6 10 2 22 -3 11 -1 19
4 16 5 -4 10 10 12 30 1 19 8 42 15 51 10 12 9 13 -3 6 -13 -8 -13 -7 -1 8 11
14 11 17 0 17 -9 1 -8 4 4 11 9 6 15 15 11 20 -3 5 0 16 6 24 10 12 10 15 -1
15 -12 0 -12 2 -1 9 8 4 13 11 13 15 -4 25 0 56 7 53 4 -3 7 9 8 26 2 51 14
101 27 109 9 6 9 8 -1 8 -10 0 -10 5 -2 20 6 11 7 20 3 20 -4 0 -1 5 7 10 12
8 12 10 1 10 -10 0 -11 3 -2 14 6 8 11 18 10 22 -4 26 2 45 14 38 9 -6 9 -4
-1 8 -8 10 -9 19 -3 22 5 3 8 17 6 31 -1 14 1 25 5 25 4 0 7 15 7 33 -1 23 3
31 14 29 11 -3 11 -1 2 9 -7 7 -9 18 -4 28 5 9 8 28 7 43 -1 14 2 24 6 22 4
-2 7 4 7 13 2 59 5 83 12 83 4 0 7 12 7 28 0 35 9 90 17 102 3 6 0 10 -7 10
-10 0 -10 2 1 9 7 5 10 14 7 20 -4 6 -2 11 4 11 6 0 8 11 6 27 -3 15 -1 32 4
38 5 5 10 36 12 68 1 31 6 57 9 57 3 0 5 11 4 25 -2 14 2 25 8 25 7 0 5 5 -3
10 -8 5 -10 10 -4 10 6 0 12 10 12 23 0 12 3 45 7 72 4 28 8 64 9 82 1 18 5
35 9 39 4 4 1 14 -6 22 -10 13 -9 14 2 7 11 -6 13 -4 8 8 -3 9 -2 19 2 22 5 3
7 15 3 27 -4 15 -2 19 7 13 10 -6 11 -3 2 13 -13 24 -14 35 -3 28 4 -2 8 12 9
32 1 77 3 83 16 76 8 -5 8 -2 -2 9 -7 9 -10 17 -5 17 5 0 9 25 8 55 0 30 4 55
9 55 5 0 4 6 -2 13 -6 8 -8 16 -5 19 3 3 7 23 10 44 3 21 7 40 9 43 3 2 -1 11
-8 19 -10 13 -9 14 2 8 11 -7 13 -1 9 28 -2 20 -1 36 4 36 4 0 5 6 2 14 -3 8
0 17 5 21 6 3 8 12 4 18 -12 19 -12 37 -1 37 6 0 5 6 -2 15 -7 8 -8 15 -4 15
5 0 11 33 12 72 2 42 8 76 15 80 8 5 8 8 1 8 -11 0 -13 27 -3 45 3 6 5 36 4
67 -1 38 2 55 9 51 6 -4 5 1 -3 10 -7 9 -9 17 -4 17 12 0 11 53 -2 62 -6 5 -6
8 1 8 7 0 11 17 10 46 -1 25 2 48 7 51 5 3 3 9 -4 14 -8 5 -9 9 -4 9 12 0 14
59 2 77 -4 7 0 16 10 22 10 6 13 11 7 11 -7 0 -9 13 -5 38 3 20 6 67 6 105 -1
40 3 67 10 67 6 0 7 3 0 8 -11 8 -18 65 -7 58 4 -3 8 4 8 15 0 10 -4 19 -9 19
-5 0 -4 7 3 15 7 8 8 15 3 15 -5 0 -9 9 -9 19 0 11 4 17 8 15 10 -6 5 26 -6
45 -6 9 -5 12 1 8 14 -9 13 176 -1 185 -8 5 -7 8 1 8 9 0 11 66 11 260 -1 173
-4 257 -11 253 -6 -4 -7 -1 -1 8 10 16 14 110 4 104 -3 -2 -6 5 -6 15 0 10 4
16 8 14 4 -3 8 2 8 10 0 9 -4 16 -10 16 -5 0 -10 5 -10 11 0 5 4 8 8 5 4 -2 8
4 8 15 0 10 -3 19 -6 19 -3 0 -5 44 -5 98 0 53 -4 100 -10 104 -6 5 -6 8 2 8
7 0 10 9 7 23 -2 12 -5 46 -5 75 -1 32 -6 52 -13 52 -7 0 -7 3 -1 8 14 10 17
32 4 32 -8 0 -8 4 0 14 7 8 8 17 4 19 -5 3 -8 30 -8 59 1 29 -3 59 -8 66 -6 8
-5 12 4 12 11 0 11 2 -1 10 -8 5 -10 10 -5 10 6 0 10 13 10 29 0 16 -3 27 -6
25 -3 -2 -6 20 -7 49 0 29 -3 66 -6 82 -2 17 -6 56 -7 88 -1 33 -7 57 -13 57
-6 0 -4 5 4 10 13 9 13 11 0 20 -12 8 -12 10 -1 10 11 0 11 3 1 15 -10 12 -10
15 1 15 9 0 10 3 4 8 -6 4 -10 16 -10 27 0 11 -4 26 -9 33 -5 7 -4 12 3 12 7
0 10 4 7 8 -4 7 -16 78 -20 128 -1 11 -5 25 -9 31 -4 6 -2 13 5 15 7 3 8 9 2
19 -5 8 -10 30 -10 49 -1 19 -5 46 -9 60 -3 14 -7 51 -8 83 -1 31 -4 57 -7 57
-3 0 -6 15 -7 33 -5 88 -6 96 -17 90 -6 -4 -5 1 3 10 7 9 9 17 4 17 -5 0 -10
12 -10 28 -1 15 -4 47 -7 72 -4 25 -7 56 -8 70 -2 14 -7 28 -13 32 -6 5 -6 8
2 8 9 0 10 7 2 27 -5 14 -8 32 -5 40 3 7 1 13 -5 13 -5 0 -9 6 -8 13 5 37 -2
78 -12 71 -8 -5 -8 -1 0 14 7 13 8 23 1 27 -5 3 -8 19 -6 36 2 19 -2 33 -13
39 -9 5 -11 10 -6 10 11 0 15 40 4 40 -3 0 -7 15 -8 33 -2 17 -3 40 -4 50 -1
9 -5 17 -10 17 -4 0 -6 4 -3 9 4 5 2 21 -4 35 -7 19 -6 26 3 26 8 0 9 2 1 8
-6 4 -10 15 -8 25 1 9 -2 17 -7 17 -6 0 -9 6 -8 13 1 6 -2 32 -7 57 -4 25 -7
49 -6 54 2 4 -3 14 -9 22 -9 11 -9 14 0 14 7 0 9 5 4 13 -4 6 -8 24 -9 39 0
15 -8 36 -18 47 -11 12 -14 21 -7 26 8 4 8 12 0 26 -6 11 -8 27 -5 35 3 8 1
14 -5 14 -6 0 -7 5 -4 10 3 6 1 10 -5 10 -6 0 -8 5 -5 10 4 6 1 18 -7 27 -11
14 -11 16 1 9 10 -7 11 -3 5 15 -4 13 -8 32 -8 42 0 9 -4 17 -9 17 -5 0 -4 7
3 16 11 12 11 15 -1 12 -9 -2 -13 4 -11 20 2 13 -2 22 -10 22 -9 0 -9 3 2 10
8 5 10 10 5 10 -10 0 -15 19 -18 68 0 12 -4 22 -7 22 -3 0 -7 10 -8 23 -3 30
-7 48 -19 76 -5 13 -9 37 -8 52 1 16 -2 26 -7 23 -4 -3 -8 8 -8 23 0 16 -6 35
-12 42 -10 10 -10 12 -1 7 8 -5 8 2 -2 21 -10 19 -11 29 -4 34 8 5 8 8 0 10
-6 2 -12 13 -14 24 -1 11 -7 26 -11 34 -7 11 -6 12 5 6 12 -8 12 -6 0 8 -7 9
-10 17 -5 17 5 0 0 7 -10 15 -11 8 -14 15 -8 15 9 0 10 5 3 19 -6 10 -7 21 -4
25 3 3 2 6 -3 6 -8 0 -14 22 -17 68 0 6 -3 12 -6 12 -4 0 -8 11 -9 24 -1 13
-7 37 -13 52 -7 16 -11 35 -10 42 1 8 -4 21 -11 30 -11 13 -11 14 2 7 12 -7
13 -6 4 6 -13 16 -28 69 -25 87 1 6 -4 12 -10 12 -7 0 -9 3 -6 7 4 3 1 13 -6
21 -10 13 -9 14 2 7 11 -6 11 -3 -2 14 -8 13 -13 30 -10 37 3 8 0 14 -7 14 -6
0 -8 5 -5 10 3 6 3 10 -2 10 -4 0 -9 11 -10 25 -2 14 -4 36 -5 50 -2 14 -6 25
-10 25 -5 0 -8 9 -8 20 0 11 -6 20 -12 20 -9 0 -8 4 2 10 9 6 10 10 3 10 -6 0
-10 9 -8 20 2 11 0 18 -6 15 -5 -4 -9 5 -9 19 0 14 -4 26 -10 26 -5 0 -7 6 -4
14 3 8 1 17 -5 20 -6 4 -7 14 -4 23 5 12 3 14 -7 8 -8 -5 -11 -4 -7 2 8 13
-27 125 -37 116 -4 -4 -4 0 0 10 3 10 -1 28 -11 43 -9 15 -11 23 -4 19 7 -5
10 -4 6 2 -14 22 -32 72 -41 110 -2 12 -9 30 -15 41 -6 11 -7 22 -4 26 3 3 1
6 -5 6 -7 0 -12 8 -12 19 0 10 -7 35 -15 55 -8 20 -12 36 -8 36 5 0 2 4 -4 8
-7 5 -14 20 -15 35 -1 15 -6 27 -11 27 -4 0 -6 4 -2 9 3 5 1 12 -5 16 -6 4 -8
11 -5 16 4 5 1 9 -4 9 -6 0 -10 3 -10 8 1 4 0 10 -1 15 -6 18 -8 24 -15 55 -4
17 -12 32 -17 32 -5 0 -6 5 -3 10 3 6 1 10 -5 10 -6 0 -8 4 -5 10 3 5 -1 22
-9 38 -8 16 -12 32 -9 35 3 4 -1 9 -10 13 -9 3 -13 12 -10 20 3 8 0 20 -6 28
-7 8 -10 20 -9 27 2 8 -2 13 -9 12 -7 -2 -10 6 -8 17 2 11 0 20 -5 20 -5 0 -7
7 -4 15 4 8 1 15 -5 15 -6 0 -8 7 -5 15 4 8 2 15 -4 15 -5 0 -13 7 -16 16 -4
10 -2 13 7 9 6 -4 5 -1 -4 7 -9 7 -14 19 -12 26 3 6 -1 12 -8 12 -7 0 -9 3 -6
7 4 3 0 17 -8 29 -11 17 -12 24 -2 27 7 3 5 6 -5 6 -11 1 -15 6 -12 15 3 8 1
17 -5 21 -6 3 -11 15 -11 26 0 10 -4 19 -10 19 -5 0 -10 12 -10 26 0 16 -4 23
-12 18 -7 -4 -8 -3 -4 4 4 6 0 24 -8 39 -8 16 -16 37 -18 48 -1 11 -5 22 -8
25 -12 12 -30 51 -30 65 0 8 -5 15 -11 15 -5 0 -8 4 -4 9 3 5 1 12 -4 16 -6 3
-8 12 -4 20 3 8 0 15 -6 15 -6 0 -11 7 -11 16 0 8 -4 13 -9 10 -5 -4 -8 2 -6
11 1 10 -5 27 -14 37 -13 16 -13 18 -1 11 13 -8 13 -7 0 11 -8 10 -19 22 -23
25 -5 3 -8 9 -8 13 4 25 0 36 -11 30 -7 -4 -8 -3 -4 4 3 6 -5 35 -19 63 -14
29 -25 59 -25 66 0 7 -4 13 -10 13 -5 0 -10 6 -10 13 0 19 -24 67 -33 67 -5 0
-5 5 -2 11 4 6 -1 17 -11 25 -11 9 -14 13 -7 10 8 -5 8 0 0 19 -7 14 -16 25
-20 25 -5 0 -5 5 -2 10 3 6 1 10 -5 10 -6 0 -9 4 -5 9 3 5 0 15 -7 23 -13 14
-20 33 -21 55 0 7 -6 14 -14 17 -7 3 -13 13 -13 23 0 10 -7 27 -15 37 -8 10
-12 23 -9 27 3 5 0 9 -5 9 -6 0 -11 7 -11 16 0 8 -4 13 -8 10 -5 -3 -9 0 -10
7 0 7 -3 21 -6 32 -2 11 -5 24 -5 28 -1 5 -5 5 -11 2 -5 -3 -10 3 -10 14 0 11
-5 23 -11 26 -6 4 -8 13 -5 21 3 7 -4 20 -14 27 -11 8 -17 17 -13 21 4 4 3 10
-2 14 -16 11 -36 52 -30 61 3 5 -2 12 -11 15 -8 3 -12 10 -9 16 3 5 1 10 -4
10 -6 0 -11 7 -11 16 0 8 -4 12 -10 9 -6 -3 -7 1 -4 10 4 9 0 23 -9 33 -8 9
-25 38 -37 65 -12 26 -26 47 -32 47 -5 0 -6 5 -2 12 4 6 -1 17 -11 24 -10 7
-15 20 -12 29 4 9 1 15 -8 15 -8 0 -14 3 -14 8 3 12 -25 72 -33 72 -4 0 -8 6
-8 14 0 8 -6 17 -12 19 -10 4 -10 6 0 6 10 1 10 4 0 15 -7 8 -15 12 -18 11 -3
-2 -7 6 -7 18 -1 12 -7 23 -13 25 -5 2 -10 10 -10 18 0 8 -5 14 -12 14 -6 0
-8 3 -5 7 4 3 -1 15 -10 26 -13 15 -14 19 -3 13 9 -5 8 -2 -2 7 -10 8 -15 17
-11 20 3 4 2 7 -4 7 -9 0 -19 22 -22 46 0 2 -6 11 -13 19 -30 33 -38 45 -38
55 0 6 -9 20 -20 32 -18 20 -25 39 -21 60 0 5 -4 7 -11 5 -7 -1 -13 3 -13 8
-3 18 -19 50 -32 63 -7 8 -11 18 -8 23 4 5 -1 9 -9 9 -10 0 -13 6 -10 15 4 8
1 15 -5 15 -6 0 -11 7 -11 15 0 8 -4 15 -10 15 -5 0 -10 7 -10 16 0 8 -5 12
-10 9 -6 -4 -9 -3 -8 2 4 12 -25 73 -34 73 -5 0 -8 7 -8 15 0 8 -4 15 -10 15
-5 0 -10 7 -10 15 0 8 -4 15 -10 15 -5 0 -10 8 -10 18 0 11 -9 27 -20 37 -11
10 -20 24 -20 31 0 7 -4 14 -9 16 -5 2 -11 10 -13 18 -2 8 -13 25 -26 38 -12
13 -20 28 -17 33 4 5 1 9 -4 9 -6 0 -11 7 -11 15 0 8 -4 15 -10 15 -5 0 -10 7
-10 15 0 8 -4 15 -10 15 -5 0 -10 6 -10 14 0 8 -7 16 -15 20 -8 3 -14 9 -14
13 4 15 -13 43 -22 37 -5 -3 -9 3 -9 14 0 10 -12 32 -27 48 -15 16 -26 30 -26
31 4 10 -11 42 -18 37 -5 -3 -9 4 -9 16 0 12 -4 18 -10 15 -5 -3 -10 1 -10 10
0 8 -7 18 -15 21 -8 4 -12 10 -9 15 3 5 -7 20 -21 35 -14 14 -23 29 -20 34 3
5 -4 11 -15 15 -11 3 -20 11 -20 16 0 6 5 7 12 3 7 -4 8 -3 4 4 -4 7 -14 12
-22 12 -8 0 -13 4 -9 10 3 5 -2 18 -12 30 -10 11 -17 23 -16 25 1 2 -11 18
-28 36 -16 17 -29 35 -29 40 0 8 -20 36 -48 65 -11 12 -11 14 0 15 7 0 3 4 -9
9 -13 5 -23 16 -23 25 0 8 -4 15 -10 15 -5 0 -10 7 -10 15 0 8 -9 20 -20 27
-11 7 -20 21 -20 31 0 10 -4 15 -10 12 -5 -3 -10 1 -10 9 0 8 -8 21 -17 28
-10 7 -19 19 -21 26 -1 7 -11 23 -22 34 -11 12 -17 25 -14 30 3 4 -2 8 -10 8
-9 0 -16 7 -16 15 0 8 -4 15 -10 15 -5 0 -10 6 -10 13 0 7 -9 19 -20 27 -11 8
-20 20 -20 26 0 7 -7 15 -16 18 -9 4 -14 9 -11 12 9 9 -17 33 -28 26 -5 -3 -7
-1 -2 3 4 5 -5 22 -20 38 -16 17 -21 26 -13 22 13 -8 13 -6 1 8 -7 9 -18 14
-24 10 -6 -4 -8 0 -4 10 4 11 1 17 -8 17 -8 0 -15 7 -15 15 0 8 -4 15 -10 15
-5 0 -10 7 -10 16 0 8 -4 12 -10 9 -5 -3 -10 1 -10 9 0 8 -12 27 -27 41 -15
14 -24 25 -19 25 4 0 -6 14 -24 30 -18 17 -29 30 -26 30 4 0 -4 11 -18 23 -14
13 -23 27 -19 31 4 4 -3 9 -15 13 -12 3 -20 9 -17 13 3 5 -4 15 -15 23 -11 7
-17 17 -13 20 3 4 0 7 -7 7 -7 0 -11 3 -8 6 3 3 -11 23 -32 44 -21 21 -35 41
-32 44 3 3 0 6 -7 6 -7 0 -9 5 -6 10 3 6 -1 10 -9 10 -9 0 -16 4 -16 10 0 5
-11 21 -25 35 -14 14 -23 25 -19 25 4 0 -5 10 -19 23 -15 12 -27 28 -27 35 0
7 -7 12 -16 12 -10 0 -14 6 -10 15 3 8 2 14 -2 12 -4 -1 -7 2 -7 6 0 5 -11 15
-25 22 -14 8 -21 14 -16 15 5 0 -3 11 -18 25 -15 14 -24 30 -21 35 4 6 2 9 -3
8 -12 -3 -82 69 -82 84 0 5 -4 6 -10 3 -5 -3 -10 0 -10 9 0 8 -13 26 -30 39
-16 14 -30 28 -30 31 0 4 -13 20 -30 38 -16 17 -30 35 -30 40 0 5 -4 7 -9 3
-5 -3 -12 3 -16 14 -3 11 -12 22 -20 25 -8 3 -15 12 -15 20 0 8 -9 18 -20 21
-11 3 -20 10 -20 14 0 5 -18 27 -40 50 -22 22 -40 46 -40 53 0 6 -3 8 -6 5 -4
-4 -20 10 -36 31 -16 20 -36 41 -44 45 -8 4 -14 15 -14 24 0 9 -3 14 -6 10 -6
-6 -74 63 -74 76 0 4 -6 7 -14 7 -8 0 -18 9 -21 20 -3 11 -14 20 -22 20 -9 0
-14 3 -10 6 8 8 -18 34 -33 34 -7 0 -10 7 -6 15 3 8 2 15 -3 15 -5 0 -35 25
-66 55 -32 30 -54 55 -50 55 5 0 0 6 -10 14 -11 8 -24 12 -30 9 -5 -4 -7 -3
-3 1 8 9 -95 116 -112 116 -6 0 -8 5 -5 11 4 6 -3 13 -15 16 -16 4 -18 8 -8
14 9 6 7 9 -9 9 -14 0 -23 6 -23 15 0 8 -8 15 -17 15 -9 0 -14 3 -10 6 7 8
-17 34 -32 34 -5 0 -13 9 -16 20 -3 11 -13 20 -21 20 -8 0 -12 5 -9 10 3 6 0
10 -7 10 -7 0 -29 18 -48 40 -19 22 -39 40 -43 40 -12 0 -37 27 -37 39 0 5 -9
13 -20 16 -11 3 -20 11 -20 16 0 6 -4 7 -10 4 -5 -3 -10 -1 -10 5 0 6 -16 26
-35 44 -19 19 -35 32 -35 30 0 -3 -13 9 -29 25 -16 16 -32 27 -35 24 -3 -4 -6
1 -6 11 0 9 -4 15 -9 12 -5 -3 -12 1 -15 10 -3 8 -11 12 -17 8 -8 -5 -9 -3 -5
5 5 8 0 14 -13 18 -11 3 -18 10 -15 15 3 5 -3 12 -15 15 -11 3 -18 9 -15 14 3
5 -2 9 -11 9 -8 0 -18 7 -21 15 -3 8 -14 17 -25 20 -10 4 -19 13 -19 21 0 8
-4 13 -9 10 -5 -3 -12 1 -15 10 -3 8 -11 12 -17 8 -8 -4 -9 -3 -5 4 4 6 -6 18
-24 27 -16 8 -30 20 -30 25 0 5 -9 12 -20 15 -11 3 -20 14 -20 22 0 9 -3 13
-6 10 -4 -3 -19 7 -34 23 -15 16 -30 26 -34 23 -3 -3 -6 0 -6 7 0 7 -3 10 -6
7 -4 -4 -19 9 -35 29 -15 19 -30 35 -33 35 -20 -2 -26 1 -26 13 0 8 -9 18 -20
21 -11 3 -20 11 -20 17 0 6 -3 9 -6 5 -3 -3 -20 8 -36 24 -17 16 -35 29 -40
29 -5 0 -6 5 -3 10 4 6 3 10 -2 9 -20 -3 -34 2 -28 11 3 6 2 10 -4 10 -5 0
-21 10 -35 23 -13 12 -34 29 -46 37 -13 8 -33 25 -46 38 -13 13 -24 20 -24 18
0 -6 -36 23 -66 52 -7 6 -17 12 -23 12 -6 0 -15 9 -21 20 -6 11 -16 20 -23 20
-7 0 -19 9 -27 19 -7 11 -17 18 -21 16 -4 -3 -9 2 -13 10 -3 8 -10 15 -16 15
-6 0 -18 7 -27 15 -8 8 -19 12 -25 9 -7 -4 -8 -2 -4 4 4 7 2 12 -4 12 -6 0 -8
5 -4 12 4 7 3 8 -5 4 -6 -4 -14 0 -17 8 -3 9 -10 13 -15 10 -5 -3 -9 0 -9 7 0
7 -3 10 -6 7 -3 -3 -19 7 -37 23 -17 16 -37 29 -45 29 -7 0 -10 5 -7 10 3 6
-1 10 -9 10 -9 0 -16 4 -16 10 0 5 -7 6 -17 3 -10 -4 -14 -2 -10 4 8 13 -18
37 -31 29 -6 -3 -12 3 -15 14 -3 11 -12 20 -21 20 -9 0 -16 5 -16 10 0 6 -10
10 -22 10 -12 0 -18 3 -15 7 4 3 -10 18 -31 32 -20 14 -46 33 -56 43 -11 10
-24 18 -28 18 -5 0 -21 12 -35 28 -15 15 -22 20 -18 12 7 -12 6 -13 -7 -3 -8
7 -19 9 -23 5 -5 -4 -5 -2 -2 4 3 6 -5 17 -18 24 -14 7 -25 17 -25 22 0 4 -6
8 -13 8 -7 0 -23 9 -35 20 -12 11 -26 20 -32 20 -5 0 -10 5 -10 10 0 6 -7 10
-15 10 -8 0 -15 5 -15 11 0 5 -4 8 -9 5 -5 -3 -11 1 -15 9 -3 8 -12 15 -21 15
-8 0 -15 4 -15 9 0 5 -13 14 -30 21 -16 7 -30 16 -30 21 0 5 -6 9 -13 9 -7 0
-23 9 -35 20 -12 11 -26 20 -32 20 -5 0 -10 5 -10 11 0 5 -4 8 -9 5 -5 -3 -11
1 -15 9 -3 8 -15 15 -26 15 -11 0 -20 4 -20 8 0 4 -26 23 -57 42 -32 19 -60
38 -61 42 -2 5 -8 6 -13 2 -5 -3 -9 -1 -9 4 0 5 -9 12 -21 15 -14 4 -18 10
-13 19 4 7 4 10 -1 6 -4 -4 -22 1 -40 12 -18 11 -36 16 -40 12 -5 -4 -5 -1 -1
6 4 7 1 12 -8 12 -9 0 -16 5 -16 11 0 5 -5 7 -10 4 -6 -3 -13 1 -16 9 -3 9
-15 16 -25 16 -11 0 -22 7 -26 16 -3 8 -12 13 -19 10 -8 -3 -14 -1 -14 4 0 6
-16 18 -35 27 -19 9 -35 21 -35 25 0 5 -4 6 -10 3 -5 -3 -10 -1 -10 5 0 6 -4
9 -9 6 -5 -3 -11 1 -15 9 -3 8 -15 15 -26 15 -11 0 -20 5 -20 11 0 6 -7 8 -16
5 -8 -3 -12 -2 -9 4 3 5 -14 18 -39 29 -24 12 -51 28 -60 36 -9 9 -25 17 -35
18 -11 0 -18 4 -15 8 2 4 -14 15 -36 25 -22 10 -40 22 -40 27 0 4 -4 5 -10 2
-5 -3 -10 -1 -10 4 0 6 -8 11 -19 11 -10 0 -24 7 -31 15 -7 9 -15 13 -18 10
-3 -2 -13 5 -23 17 -11 11 -19 18 -19 14 0 -8 -75 31 -101 52 -9 7 -26 14 -37
15 -12 0 -19 3 -17 6 7 7 -28 30 -47 31 -9 0 -18 3 -20 8 -5 11 -108 63 -108
55 0 -5 -4 -3 -8 2 -4 6 -16 17 -26 25 -18 13 -19 13 -12 0 4 -9 2 -8 -7 2 -8
10 -17 15 -20 11 -4 -3 -7 -1 -7 5 0 7 -9 12 -20 12 -11 0 -20 3 -20 8 0 7
-48 32 -62 32 -5 0 -22 10 -37 21 -17 13 -34 18 -42 14 -7 -5 -10 -4 -5 3 6
10 -17 23 -38 21 -5 0 -12 3 -15 8 -8 11 -84 48 -93 45 -5 -1 -8 3 -8 9 0 5
-4 7 -10 4 -5 -3 -10 -1 -10 4 0 6 -9 11 -20 11 -11 0 -20 4 -20 9 0 8 -37 24
-52 22 -5 -1 -8 4 -8 10 0 6 -9 9 -20 6 -11 -3 -18 -2 -15 3 3 4 -3 14 -12 21
-10 8 -14 9 -10 2 9 -14 -49 13 -77 36 -15 12 -17 12 -11 2 5 -9 -5 -5 -22 7
-17 12 -38 22 -46 22 -9 0 -19 5 -22 10 -4 6 -11 8 -16 5 -5 -4 -9 -1 -9 5 0
6 -4 9 -9 6 -5 -4 -11 -2 -13 3 -1 5 -10 11 -18 13 -8 2 -21 9 -28 16 -8 7
-18 10 -23 7 -5 -4 -9 -1 -9 4 0 6 -3 10 -7 9 -5 -1 -17 3 -28 9 -11 6 -29 13
-40 14 -11 2 -23 8 -26 12 -3 4 -15 9 -27 10 -11 0 -19 4 -17 8 3 3 -15 12
-38 19 -23 7 -46 18 -52 24 -5 6 -21 12 -35 14 -13 1 -27 7 -31 13 -3 6 -10
11 -15 11 -5 0 -20 4 -32 9 -13 5 -28 7 -33 3 -5 -3 -8 -1 -7 4 2 6 -1 10 -6
10 -5 0 -13 6 -17 14 -7 10 -9 10 -9 -2 0 -13 -1 -13 -10 0 -5 8 -13 15 -17
16 -26 3 -63 18 -63 26 0 5 -4 6 -10 3 -5 -3 -10 0 -10 7 0 9 -3 9 -10 -2 -7
-12 -10 -12 -10 -1 0 7 -6 11 -15 7 -9 -3 -15 0 -15 8 0 9 -7 12 -20 9 -11 -3
-20 0 -20 6 0 6 -12 11 -26 11 -14 0 -23 4 -19 10 5 9 -22 14 -63 13 -9 -1
-10 3 -2 12 9 11 7 12 -9 8 -12 -3 -21 -1 -21 5 0 6 -11 9 -25 8 -13 -2 -23 2
-22 7 2 11 -5 13 -44 16 -11 0 -18 5 -14 10 3 6 -4 8 -15 6 -11 -2 -20 1 -20
7 0 6 -3 8 -7 5 -3 -4 -13 -1 -21 6 -13 10 -14 9 -8 -1 7 -11 4 -11 -12 -1
-12 7 -18 17 -15 23 4 5 -1 7 -11 3 -10 -4 -27 -2 -39 5 -12 7 -27 13 -34 14
-7 1 -26 9 -43 17 -19 10 -28 11 -23 4 3 -7 -3 -4 -14 5 -11 10 -32 19 -46 20
-15 1 -27 6 -27 10 0 4 -8 8 -17 8 -10 0 -30 6 -45 14 -20 11 -28 11 -32 3 -3
-9 -5 -9 -5 0 -1 7 -17 15 -36 19 -19 3 -39 12 -45 19 -6 8 -18 11 -26 8 -8
-3 -21 0 -29 7 -8 7 -15 9 -15 5 0 -4 -7 -2 -15 5 -8 7 -22 10 -30 6 -9 -3
-13 -2 -10 4 3 6 -3 10 -14 10 -12 0 -21 4 -21 9 0 6 -9 8 -20 6 -11 -2 -22 1
-25 6 -4 5 -11 7 -16 4 -5 -4 -9 -1 -9 6 0 7 -3 9 -7 6 -3 -4 -13 -1 -21 6
-13 10 -14 9 -7 -2 6 -11 2 -10 -16 2 -13 9 -33 17 -44 17 -12 0 -25 4 -31 10
-5 5 -22 11 -37 12 -15 1 -27 5 -27 9 0 3 -6 6 -12 7 -29 2 -47 9 -62 21 -9 8
-19 11 -23 7 -3 -3 0 -6 7 -6 7 0 10 -3 7 -6 -4 -4 -12 -2 -20 4 -7 6 -26 13
-42 16 -15 3 -32 11 -37 18 -6 10 -8 10 -8 -2 0 -9 -3 -11 -8 -5 -7 10 -27 17
-49 18 -7 0 -13 4 -13 8 0 5 -6 6 -14 3 -8 -3 -17 -1 -20 5 -4 6 -13 8 -21 4
-8 -3 -15 0 -15 7 0 6 -4 8 -10 5 -5 -3 -10 0 -10 7 0 10 -2 10 -9 -1 -6 -9
-11 -10 -15 -2 -4 6 -12 9 -17 6 -5 -4 -9 -1 -9 5 0 7 -7 10 -15 7 -8 -4 -17
-2 -21 4 -3 6 -12 8 -20 5 -7 -3 -16 -1 -19 5 -4 5 -10 7 -15 4 -5 -3 -12 0
-15 6 -4 5 -13 8 -21 5 -8 -3 -14 -2 -14 2 0 4 -12 9 -27 10 -15 1 -30 8 -35
15 -6 9 -8 8 -8 -3 0 -9 -3 -11 -8 -5 -7 10 -27 17 -49 18 -7 0 -13 3 -13 7 0
4 -13 6 -30 5 -16 -1 -30 3 -30 8 0 5 -9 7 -20 4 -13 -3 -18 -1 -13 6 4 6 0 8
-10 4 -10 -3 -17 -2 -17 4 0 6 -9 8 -20 4 -11 -3 -20 -3 -20 2 0 8 -23 13 -67
16 -7 0 -13 3 -13 7 0 4 -6 7 -12 7 -14 1 -56 9 -98 19 -14 3 -31 6 -37 6 -7
1 -13 4 -13 8 0 3 -17 7 -37 8 -21 2 -41 8 -45 15 -6 9 -8 8 -8 -3 0 -10 -3
-11 -8 -4 -4 6 -19 10 -34 10 -14 -1 -26 3 -25 8 2 8 -33 16 -90 19 -13 1 -23
5 -23 9 0 4 -8 7 -17 7 -24 0 -45 5 -62 15 -11 7 -12 6 -6 -5 8 -12 6 -12 -8
-1 -9 8 -21 11 -27 7 -5 -3 -10 -2 -10 4 0 6 -7 8 -15 5 -8 -4 -15 -2 -15 4 0
5 -13 8 -30 6 -16 -2 -31 0 -34 5 -3 4 -19 7 -35 6 -18 -1 -28 2 -24 8 4 6 -2
8 -15 5 -12 -4 -24 -2 -27 2 -3 5 -14 7 -25 5 -11 -2 -20 0 -20 4 0 4 -15 8
-32 9 -41 1 -59 5 -77 16 -10 7 -12 6 -6 -4 6 -10 4 -11 -6 -4 -14 9 -21 10
-74 18 -16 3 -51 9 -77 14 -26 5 -50 7 -53 4 -3 -3 -5 0 -5 8 0 10 -4 10 -17
-1 -9 -8 -14 -9 -10 -3 6 10 -21 15 -76 15 -9 0 -15 4 -13 8 3 4 -1 8 -9 8 -8
0 -15 -5 -15 -11 0 -6 -4 -5 -9 3 -5 8 -16 11 -25 8 -9 -4 -16 -1 -16 6 0 9
-3 8 -9 -1 -7 -11 -9 -11 -14 0 -5 15 -55 16 -78 3 -8 -5 -10 -4 -5 3 6 11 -5
16 -26 13 -4 0 -19 4 -33 9 -14 6 -24 6 -21 2 2 -4 -4 -8 -14 -8 -10 0 -16 4
-14 8 3 4 -13 8 -35 8 -22 0 -42 5 -44 13 -4 9 -6 8 -6 -2 -1 -11 -4 -11 -18
0 -15 12 -16 12 -8 -1 7 -12 6 -13 -6 -3 -8 7 -24 12 -34 12 -11 0 -38 2 -60
6 -22 3 -59 7 -82 8 -22 1 -39 6 -36 10 3 5 -11 7 -31 4 -21 -3 -36 -1 -36 5
0 6 -8 4 -17 -3 -9 -8 -14 -9 -10 -3 4 7 -6 11 -26 12 -51 2 -107 11 -119 18
-7 4 -8 3 -4 -4 5 -8 -2 -8 -24 -1 -17 6 -37 9 -44 6 -8 -3 -17 -1 -20 6 -3 9
-5 9 -5 0 -1 -9 -8 -10 -26 -3 -14 5 -25 7 -25 4 0 -4 -7 -1 -15 6 -11 9 -15
9 -15 1 0 -7 -5 -9 -12 -5 -7 4 -24 8 -38 9 -14 1 -31 5 -38 9 -7 4 -12 2 -12
-5 0 -10 -3 -10 -12 -1 -15 15 -31 16 -22 0 5 -7 3 -8 -7 -2 -8 4 -32 9 -54
11 -22 1 -40 2 -40 3 0 1 -20 4 -45 6 -78 7 -95 9 -107 17 -6 4 -15 2 -19 -4
-4 -8 -9 -7 -15 2 -7 12 -9 12 -9 0 0 -11 -3 -11 -15 -1 -11 9 -15 9 -15 1 0
-7 -5 -9 -12 -4 -7 4 -44 8 -81 9 -38 2 -75 5 -82 8 -8 3 -16 0 -19 -7 -3 -8
-5 -8 -5 2 -1 11 -4 11 -18 0 -9 -8 -14 -9 -10 -3 4 7 0 15 -9 18 -8 3 -12 2
-9 -4 3 -5 -8 -7 -27 -4 -18 3 -84 7 -146 9 -62 1 -116 5 -119 8 -3 3 -16 2
-29 -3 -13 -5 -26 -6 -28 -1 -7 10 -1194 11 -1222 1 -11 -5 -28 -4 -37 1 -12
7 -17 6 -17 -3 0 -10 -2 -10 -9 1 -5 7 -11 9 -14 4z"/>
</g>
</svg>
